<?xml version="1.0" standalone="no"?>
<!DOCTYPE svg PUBLIC "-//W3C//DTD SVG 1.1//EN" "http://www.w3.org/Graphics/SVG/1.1/DTD/svg11.dtd" >
<svg xmlns="http://www.w3.org/2000/svg">
<metadata>
This is a custom SVG font generated by IcoMoon.
<iconset grid="20"></iconset>
</metadata>
<defs>
<font id="icomoon" horiz-adv-x="640" >
<font-face units-per-em="640" ascent="608" descent="-32" />
<missing-glyph horiz-adv-x="640" />
<glyph class="hidden" unicode="&#xf000;" d="M0,608L 640 -32L0 -32 z" horiz-adv-x="0" />
<glyph unicode="&#xe30a;" d="M 533.333,528L 533.333,581.333L 373.333,581.333L 373.333,528L 426.667,528L 426.667,48L 373.333,48L 373.333-5.333L 533.333-5.333L 533.333,48L 480,48L 480,528 	zM 373.333,465.547c0,2.773-5.2,6.107-8.533,8.48c-14.693,10.96-30.933,18.107-48.96,21.413c-18.027,3.333-39.067,4.987-63.28,4.987
		c-17.547,0-35.573-2.773-54-8.427C 180.107,486.373, 164.427,479.547, 151.467,471.44C 136.453,461.947, 124.293,451.12, 114.933,439.040
		C 105.573,426.933, 100.88,414.24, 100.88,400.987c0-12.693, 3.387-24.133, 10.16-34.373s 17.36-15.333, 31.76-15.333c 16.133,0, 28.747,4.16, 37.84,12.56
		c 9.093,8.32, 13.627,17.547, 13.627,27.653c0,9.493-1.387,19.867-4.107,31.12c-2.773,11.227-4.107,19.733-4.107,25.493
		c 4.613,4.907, 12.613,9.573, 24,14.053c 11.36,4.48, 23.707,6.693, 36.96,6.693c 19.307,0, 34.213-3.947, 44.747-11.867
		c 10.533-7.947, 18.667-17.227, 24.427-27.893C 321.36,419.573, 320,398, 320,398l0-63.6 c0-7.493-36.187-17.867-75.84-31.12
		s-63.76-22.32-76.747-27.227C 157.067,272, 147.093,266.587, 135.253,259.84c-11.813-6.8-20.8-14.48-28.027-23.147
		c-9.227-10.373-15.867-22.027-20.48-34.987S 80,174.053, 80,157.6c0-31.707, 10.373-57.36, 30.987-76.96c 20.587-19.573, 46.933-29.413, 78.907-29.413
		c 30.267,0, 56.133,11.867, 77.6,22.8C 289.013,85.040, 309.12,101.333, 327.84,128l 2.613,0 c 3.76-26.667, 12.107-41.893, 25.493-52.427L 373.333,74.667L 373.333,465.547 z
		 M 326.987,148.613c-10.667-13.573-23.787-25.307-39.333-35.307c-15.573-9.947-33.6-14.96-54.053-14.96c-19.333,0-35.227,5.627-47.76,16.933
		c-12.56,11.253-18.8,28.853-18.8,52.8c0,18.48, 4.16,34.48, 12.56,47.893c 8.32,13.467, 19.733,25.067, 34.107,34.88
		c 15.893,10.427, 33.013,19.067, 51.467,26.027c 18.427,6.933, 37.28,13.28, 61.813,20.453L 326.987,148.613 z"  />
<glyph unicode="&#xe000;" d="M 26.667,528l0-186.667 l 26.667,0 l0-293.333 l 533.333,0 L 586.667,341.333 l 26.667,0 L 613.333,528 L 26.667,528 z M 533.333,101.333L 106.667,101.333 l0,240 l 426.667,0 L 533.333,101.333 z M 560,394.667L 80,394.667 L 80,474.667 l 480,0 L 560,394.667 z M 480,314.667L 160,314.667 l0-186.667 l 320,0 L 480,314.667 z M 453.333,154.667L 186.667,154.667 l0,133.333 l 266.667,0 L 453.333,154.667 z M 426.667,261.333L 213.333,261.333 l0-26.667 l 213.333,0 L 426.667,261.333 z
			 M 346.667,208L 213.333,208 l0-26.667 l 133.333,0 L 346.667,208 z"  />
<glyph unicode="&#xe001;" d="M 560,314.667L 560,501.333 l-80,0 L 480,581.333 L 53.333,581.333 l0-266.667 L 26.667,314.667 l0-53.333 l 26.667,0 l0-293.333 l 533.333,0 L 586.667,261.333 l 26.667,0 l0,53.333 L 560,314.667 z M 506.667,448l0-133.333 L 186.667,314.667 L 186.667,448 L 506.667,448 z M 106.667,528l 320,0 l0-26.667 L 133.333,501.333 l0-186.667 L 106.667,314.667 L 106.667,528 z M 533.333,21.333L 106.667,21.333 l0,240 l 426.667,0 L 533.333,21.333 z M 480,234.667L 160,234.667 l0-186.667 l 320,0 L 480,234.667 z
			 M 453.333,74.667L 186.667,74.667 l0,133.333 l 266.667,0 L 453.333,74.667 z M 426.667,181.333L 213.333,181.333 l0-26.667 l 213.333,0 L 426.667,181.333 z M 346.667,128L 213.333,128 l0-26.667 l 133.333,0 L 346.667,128 z"  />
<glyph unicode="&#xe002;" d="M 26.667,448l0-53.333 l0-293.333 l 560,0 L 586.667,394.667 L 586.667,447.787 L 586.667,448 L 26.667,448 z M 80,154.667L 80,364.427 L 494.507,154.667L 80,154.667 z M 533.333,182.693l-170.080,90.853L 533.333,364.427L 533.333,182.693 z M 322.347,303.787L 143.52,394.667
	l 351.867,0 L 322.347,303.787z"  />
<glyph unicode="&#xe003;" d="M 346.667,448L 186.667,448 l0-53.333 l 160,0 L 346.667,448 z M 426.667,368L 186.667,368 l0-26.667 l 240,0 L 426.667,368 z M 426.667,314.667L 186.667,314.667 l0-26.667 l 240,0 L 426.667,314.667 z M 533.333,287.973L 533.333,581.333 L 80,581.333 l0-294.213 L 26.667,314.667l0-346.667 l 560,0 L 586.667,314.453 L 533.333,287.973z M 133.333,528l 346.667,0 l0-264.24 
		l-53.333-28.587L 426.667,261.333 L 186.667,261.333 l0-26.667 l 239.067,0 l-119.787-64.213L 133.333,259.6L 133.333,528 z M 80,21.333l0,209.76 L 470.693,21.333L 80,21.333 z M 533.333,49.36l-170.080,90.853L 533.333,231.093L 533.333,49.36 z"  />
<glyph unicode="&#xe004;" d="M 133.333,608l0-80 L 53.333,528 l0-560 l 453.333,0 l0,80 l 80,0 L 586.667,608 L 133.333,608 z M 453.333,21.333L 106.667,21.333 L 106.667,474.667 l 26.667,0 l0-426.667 l 320,0 L 453.333,21.333 z M 533.333,101.333L 186.667,101.333 L 186.667,554.667 l 346.667,0 L 533.333,101.333 z M 400,474.667L 240,474.667 l0-53.333 l 160,0 L 400,474.667 z M 480,394.667L 240,394.667 l0-26.667 l 240,0 L 480,394.667 z M 480,341.333L 240,341.333 l0-26.667 l 240,0 L 480,341.333 z
			 M 480,288L 240,288 l0-26.667 l 240,0 L 480,288 z M 320,234.667L 240,234.667 l0-26.667 l 80,0 L 320,234.667 z"  />
<glyph unicode="&#xe005;" d="M 577.147,288L 533.333,288 L 533.333,554.667 L 80,554.667 l0-266.667 L 43.813,288 C 14.48,288,0,264,0,234.667l0-53.333 c0-29.333, 14.48-53.333, 43.813-53.333L 80,128 l0-133.333 l 160,0 l0,133.333 l 53.333,0 l0-133.333 l 213.333,0 l0,133.333 l 70.48,0 
		c 29.333,0, 62.853,24, 62.853,53.333l0,53.333 C 640,264, 606.453,288, 577.147,288z M 186.667,48L 133.333,48 l0,80 l 53.333,0 L 186.667,48 z M 373.333,48l-26.667,0 l0,80 l 26.667,0 L 373.333,48 z M 453.333,48l-26.667,0 l0,80 l 26.667,0 L 453.333,48 z M 480,288l-62.853,0 
		l-240,0 L 133.333,288 L 133.333,501.333 l 346.667,0 L 480,288 z M 540.48,165.68c-22.453,0-40.613,18.213-40.613,40.64s 18.187,40.64, 40.613,40.64s 40.667-18.213, 40.667-40.64
		S 562.907,165.68, 540.48,165.68zM 186.667,421.333L 346.667,421.333L 346.667,368L 186.667,368zM 186.667,341.333L 426.667,341.333L 426.667,314.667L 186.667,314.667zM 26.667,474.667L 53.333,474.667L 53.333,341.333L 26.667,341.333zM 560,421.333L 586.667,421.333L 586.667,341.333L 560,341.333z" />
<glyph unicode="&#xe006;" d="M 186.667,421.333l0-53.333 l 160,0 L 346.667,421.333 L 186.667,421.333 z M 186.667,314.667l 240,0 l0,26.667 L 186.667,341.333 L 186.667,314.667 z M 426.667,288l-80,0 l0-26.667 l 80,0 L 426.667,288 z M 346.667,208l 80,0 l0,26.667 l-80,0 L 346.667,208 z M 80,554.667l0-266.667 l 53.333,0 L 133.333,501.333 l 346.667,0 l0-453.333 l-133.333,0 l0-53.333 l 186.667,0 L 533.333,554.667 L 80,554.667 zM 258.853,141.333c0,6.4-0.96,12.533-2.347,18.48l 37.013,24.827l-23.76,40.693l-37.44-25.013c-6.907,6.080-14.853,10.72-23.573,13.733L 208.747,261.333 
	L 163.973,261.333 l0-47.493 c-8.507-3.013-16.213-7.627-22.987-13.6L 103.653,225.333l-23.733-40.693l 37.013-24.8C 115.547,153.893, 114.587,147.733, 114.587,141.333
	c0-6.427, 0.96-12.587, 2.347-18.533L 80,98.027l 23.76-40.693l 37.227,25.093c 6.747-5.973, 14.48-10.56, 22.987-13.6L 163.973,21.333 l 44.773,0 l0,47.253 
	c 8.72,2.987, 16.667,7.627, 23.573,13.707l 37.333-24.987l 23.813,40.693l-36.96,24.8C 257.867,128.773, 258.853,134.907, 258.853,141.333z M 186.72,93.307
	c-24.693,0-44.773,21.52-44.773,48.027s 20.080,48, 44.773,48c 24.747,0, 44.773-21.493, 44.773-48S 211.467,93.307, 186.72,93.307z"  />
<glyph unicode="&#xe007;" d="M 213.333,421.333l0-53.333 l 160,0 L 373.333,421.333 L 213.333,421.333 z M 213.333,314.667l 240,0 l0,26.667 L 213.333,341.333 L 213.333,314.667 z M 453.333,288L 240,288 l0-26.667 l 213.333,0 L 453.333,288 z M 453.333,208l0,26.667 l-186.667,0 l0-26.667 L 453.333,208 z M 213.333,234.667L 133.333,234.667 l0-80 L 53.333,154.667 l0-80 l 80,0 l0-80 l 80,0 l0,80 l 80,0 l0,80 L 213.333,154.667 L 213.333,234.667 z M 106.667,554.667l0-266.667 l 53.333,0 L 160,501.333 l 346.667,0 
			l0-453.333 l-177.147,0 l-26.667-53.333L 560-5.333 L 560,554.667 L 106.667,554.667 z"  />
<glyph unicode="&#xe008;" d="M 186.667,421.333L 346.667,421.333L 346.667,368L 186.667,368zM 186.667,341.333L 426.667,341.333L 426.667,314.667L 186.667,314.667zM 186.667,288L 426.667,288L 426.667,261.333L 186.667,261.333zM 186.667,234.667L 426.667,234.667L 426.667,208L 186.667,208zM 186.667,181.333L 266.667,181.333L 266.667,154.667L 186.667,154.667zM 438.133,554.667L 80,554.667 l0-560 l 453.333,0 L 533.333,460.4 L 438.133,554.667z M 480,438.32L 480,421.333 l-80,0 L 400,501.333 l 16.053,0 L 480,438.32z M 133.333,48L 133.333,501.333 l 240,0 l0-106.667 l 106.667,0 l0-346.667 L 133.333,48 z"  />
<glyph unicode="&#xe009;" d="M 80,554.667l0-560 l 453.333,0 L 533.333,554.667 L 80,554.667 z M 480,48L 133.333,48 L 133.333,501.333 l 346.667,0 L 480,48 z M 346.667,421.333L 186.667,421.333 l0-53.333 l 160,0 L 346.667,421.333 z M 426.667,341.333L 186.667,341.333 l0-26.667 l 240,0 L 426.667,341.333 z M 426.667,288L 186.667,288 l0-26.667 l 240,0 L 426.667,288 z M 426.667,234.667L 186.667,234.667 l0-26.667 l 240,0 L 426.667,234.667 z M 266.667,181.333L 186.667,181.333 l0-26.667 l 80,0 L 266.667,181.333 z"  />
<glyph unicode="&#xe00a;" d="M 80,554.667l0-560 l 453.333,0 L 533.333,554.667 L 80,554.667 z M 480,48L 133.333,48 L 133.333,501.333 l 346.667,0 L 480,48 z M 426.667,421.333l-160,0 l0-53.333 l 160,0 L 426.667,421.333 z M 426.667,341.333L 186.667,341.333 l0-26.667 l 240,0 L 426.667,341.333 z M 426.667,288L 186.667,288 l0-26.667 l 240,0 L 426.667,288 z M 426.667,234.667L 186.667,234.667 l0-26.667 l 240,0 L 426.667,234.667 z M 346.667,154.667l 80,0 l0,26.667 l-80,0 
			L 346.667,154.667 z"  />
<glyph unicode="&#xe00b;" d="M 80,554.667l0-560 l 453.333,0 L 533.333,554.667 L 80,554.667 z M 480,48L 133.333,48 L 133.333,501.333 l 346.667,0 L 480,48 z M 373.333,421.333L 213.333,421.333 l0-53.333 l 160,0 L 373.333,421.333 z M 426.667,341.333L 186.667,341.333 l0-26.667 l 240,0 L 426.667,341.333 z M 426.667,288L 186.667,288 l0-26.667 l 240,0 L 426.667,288 z M 426.667,234.667L 186.667,234.667 l0-26.667 l 240,0 L 426.667,234.667 z M 266.667,154.667l 80,0 l0,26.667 l-80,0 L 266.667,154.667 
			z"  />
<glyph unicode="&#xe00c;" d="M 80,554.667l0-560 l 453.333,0 L 533.333,554.667 L 80,554.667 z M 480,48L 133.333,48 L 133.333,501.333 l 346.667,0 L 480,48 z M 426.667,421.333L 186.667,421.333 l0-53.333 l 240,0 L 426.667,421.333 z M 426.667,341.333L 186.667,341.333 l0-26.667 l 240,0 L 426.667,341.333 z M 426.667,288L 186.667,288 l0-26.667 l 240,0 L 426.667,288 z M 426.667,234.667L 186.667,234.667 l0-26.667 l 240,0 L 426.667,234.667 z M 426.667,181.333L 186.667,181.333 l0-26.667 l 240,0 L 426.667,181.333 z"  />
<glyph unicode="&#xe00d;" d="M 80,554.667l0-560 l 453.333,0 L 533.333,554.667 L 80,554.667 z M 480,48L 133.333,48 L 133.333,501.333 l 346.667,0 L 480,48 z M 240.667,184.293l 66,66l 66-66l 37.707,37.707L 344.373,288l 66,66
			l-37.707,37.707L 306.667,325.707L 240.667,391.707L 202.96,354L 268.96,288l-66-66L 240.667,184.293z"  />
<glyph unicode="&#xe00e;" d="M0,581.333l0-586.667 l 640,0 L 640,581.333 L0,581.333 z M 586.667,48L 53.333,48 L 53.333,394.667 l 533.333,0 L 586.667,48 z M 586.667,421.333L 53.333,421.333 L 53.333,528 l 533.333,0 L 586.667,421.333 z M 293.333,501.333L 240,501.333 l0-53.333 l 53.333,0 L 293.333,501.333 z M 213.333,501.333L 160,501.333 l0-53.333 l 53.333,0 L 213.333,501.333 z M 133.333,501.333L 80,501.333 l0-53.333 l 53.333,0 L 133.333,501.333 z"  />
<glyph unicode="&#xe00f;" d="M 80,581.333l0-80 L0,501.333 l0-506.667 l 560,0 l0,80 l 80,0 L 640,581.333 L 80,581.333 z M 506.667,48L 53.333,48 L 53.333,448 l 26.667,0 l0-373.333 l 426.667,0 L 506.667,48 z M 586.667,128L 133.333,128 L 133.333,394.667 l 453.333,0 L 586.667,128 z M 586.667,421.333L 133.333,421.333 L 133.333,528 l 453.333,0 L 586.667,421.333 z M 373.333,501.333l-53.333,0 l0-53.333 l 53.333,0 L 373.333,501.333 z M 293.333,501.333L 240,501.333 l0-53.333 l 53.333,0 L 293.333,501.333 z M 213.333,501.333
			L 160,501.333 l0-53.333 l 53.333,0 L 213.333,501.333 z"  />
<glyph unicode="&#xe010;" d="M0,581.333l0-586.667 l 640,0 L 640,581.333 L0,581.333 z M 586.667,48L 53.333,48 L 53.333,394.667 l 533.333,0 L 586.667,48 z M 586.667,421.333L 53.333,421.333 L 53.333,528 l 533.333,0 L 586.667,421.333 z M 293.333,501.333L 240,501.333 l0-53.333 l 53.333,0 L 293.333,501.333 z M 213.333,501.333L 160,501.333 l0-53.333 l 53.333,0 L 213.333,501.333 z M 133.333,501.333L 80,501.333 l0-53.333 l 53.333,0 L 133.333,501.333 z M 240.667,130.96
			l 66,66l 66-66l 37.707,37.707L 344.373,234.667l 66,66l-37.707,37.707L 306.667,272.373l-66,66l-37.707-37.707L 268.96,234.667
			l-66-66L 240.667,130.96z"  />
<glyph unicode="&#xe011;" d="M 373.333,501.333L 373.333,528 c0,29.44-23.893,53.333-53.333,53.333L 213.333,581.333 C 183.893,581.333, 160,557.44, 160,528l0-26.667 L 53.333,501.333 l0-80 L 26.667,421.333 l0-426.667 l 586.667,0 L 613.333,501.333 L 373.333,501.333 z M 560,48L 80,48 L 80,368 l 480,0 L 560,48 z M 560,421.333L 106.667,421.333 L 106.667,448 l 106.667,0 L 213.333,528 l 106.667,0 l0-80 l 240,0 L 560,421.333 z"  />
<glyph unicode="&#xe012;" d="M 373.333,528L 373.333,554.667 c0,29.44-23.893,53.333-53.333,53.333L 213.333,608 C 183.893,608, 160,584.107, 160,554.667l0-26.667 L 53.333,528 l0-80 L 26.667,448 l0-186.667 l 53.333,0 L 80,394.667 l 480,0 l0-320 L 266.667,74.667 l0-53.333 l 346.667,0 L 613.333,528 L 373.333,528 z M 560,448L 106.667,448 L 106.667,474.667 l 106.667,0 L 213.333,554.667 l 106.667,0 l0-80 l 240,0 L 560,448 zM 160,234.667L 80,234.667L 80,154.667L0,154.667L0,74.667L 80,74.667L 80-5.333L 160-5.333L 160,74.667L 240,74.667L 240,154.667L 160,154.667 	z"  />
<glyph unicode="&#xe013;" d="M 373.333,501.333L 373.333,528 c0,29.44-23.893,53.333-53.333,53.333L 213.333,581.333 C 183.893,581.333, 160,557.44, 160,528l0-26.667 L 53.333,501.333 l0-80 L 26.667,421.333 l0-186.667 l 53.333,0 L 80,368 l 480,0 l0-320 L 266.667,48 l0-53.333 l 346.667,0 L 613.333,501.333 L 373.333,501.333 z M 560,421.333L 106.667,421.333 L 106.667,448 l 106.667,0 L 213.333,528 l 106.667,0 l0-80 l 240,0 L 560,421.333 zM 198.613,87.44c 1.067,4.48, 1.36,9.12, 1.36,13.893c0,4.8-0.64,9.413-1.68,13.893l 41.147,24.613L 215.76,176l-38.8-24.72
	c-5.68,4.32-16.507,7.76-16.507,10.133L 160.453,208 L 106.213,208 l0-46.587 c0-2.373-10.827-5.813-16.507-10.133L 50.907,176l-23.68-36.16l 41.147-24.613
	C 67.36,110.747, 66.693,106.133, 66.693,101.333c0-4.773, 0.293-9.413, 1.36-13.893l-41.44-24.613l 23.013-36.187l 40.053,24.747
	c 5.707-4.32, 16.533-7.76, 16.533-10.16L 106.213-5.333 l 54.213,0 l0,46.56 c0,2.4, 10.827,5.84, 16.533,10.16l 40.053-24.747l 23.013,36.187L 198.613,87.44z
	 M 133.333,58.693C 108.853,58.853, 89.013,77.867, 89.013,101.333S 108.853,143.813, 133.333,143.973C 157.813,143.813, 177.653,124.8, 177.653,101.333S 157.813,58.853, 133.333,58.693z"  />
<glyph unicode="&#xe014;" d="M 373.333,501.333L 373.333,528 c0,29.44-23.893,53.333-53.333,53.333L 213.333,581.333 C 183.893,581.333, 160,557.44, 160,528l0-26.667 L 53.333,501.333 l0-80 L 26.667,421.333 l0-186.667 l 53.333,0 L 80,368 l 480,0 l0-320 L 266.667,48 l0-53.333 l 346.667,0 L 613.333,501.333 L 373.333,501.333 z M 560,421.333L 106.667,421.333 L 106.667,448 l 106.667,0 L 213.333,528 l 106.667,0 l0-80 l 240,0 L 560,421.333 zM 106.72,88L 86.907,138L 47.36,88.72L 112.427,1.493L 219.627,175.76L 180.347,198.827 	z"  />
<glyph unicode="&#xe015;" d="M 320,370.133c-52.24,0-99.52-21.173-133.76-55.413L 224,276.96c 24.587,24.613, 58.533,39.84, 96,39.84s 71.413-15.227, 96-39.84
			l 37.76,37.76C 419.52,348.96, 372.24,370.133, 320,370.133z M 320,259.227c-22.080,0-40-17.947-40-40.027s 17.92-40, 40-40s 40,17.92, 40,40
			S 342.080,259.227, 320,259.227z"  />
<glyph unicode="&#xe016;" d="M 186.24,263.52L 224,225.76c 24.587,24.587, 58.533,39.84, 96,39.84s 71.413-15.253, 96-39.84l 37.76,37.76
			C 419.52,297.76, 372.24,318.933, 320,318.933S 220.48,297.76, 186.24,263.52z M 320,440.613c-85.84,0-163.547-34.8-219.787-91.040l 37.813-37.813
			C 184.64,358.4, 249.013,387.28, 320,387.28s 135.36-28.88, 181.973-75.52l 37.813,37.813C 483.547,405.813, 405.84,440.613, 320,440.613z M 320,208
			c-22.080,0-40-17.92-40-40S 297.92,128, 320,128s 40,17.92, 40,40S 342.080,208, 320,208z"  />
<glyph unicode="&#xe017;" d="M 186.24,183.52L 224,145.76c 24.587,24.587, 58.533,39.84, 96,39.84s 71.413-15.253, 96-39.84l 37.76,37.76
			C 419.52,217.733, 372.24,238.933, 320,238.933S 220.48,217.733, 186.24,183.52z M 100.213,269.573l 37.813-37.813C 184.64,278.4, 249.013,307.28, 320,307.28
			s 135.36-28.88, 181.973-75.52l 37.813,37.813C 483.547,325.813, 405.84,360.613, 320,360.613S 156.453,325.813, 100.213,269.573z M 320,482.267
			c-119.44,0-227.547-48.4-305.84-126.693l 37.84-37.84C 120.667,386.4, 215.467,428.933, 320,428.933s 199.333-42.533, 268-111.2l 37.84,37.84
			C 547.547,433.867, 439.44,482.267, 320,482.267z M 320,128c-22.080,0-40-17.92-40-40S 297.92,48, 320,48s 40,17.92, 40,40S 342.080,128, 320,128z"  />
<glyph unicode="&#xe018;" d="M 373.333,554.667l0-106.667 l-106.667,0 l0-106.667 L 160,341.333 l0-106.667 L 53.333,234.667 l0-213.333 l 506.667,0 L 560,554.667 L 373.333,554.667 z M 186.667,74.667L 106.667,74.667 l0,106.667 l 80,0 L 186.667,74.667 z M 293.333,74.667L 213.333,74.667 l0,213.333 l 80,0 L 293.333,74.667 z M 400,74.667l-80,0 L 320,394.667 l 80,0 L 400,74.667 z M 506.667,74.667l-80,0 L 426.667,501.333 l 80,0 L 506.667,74.667 z"  />
<glyph unicode="&#xe019;" d="M 373.333,554.667l0-106.667 l-106.667,0 l0-106.667 L 160,341.333 l0-106.667 L 53.333,234.667 l0-213.333 l 506.667,0 L 560,554.667 L 373.333,554.667 z M 293.333,74.667L 213.333,74.667 l0,213.333 l 80,0 L 293.333,74.667 z M 400,74.667l-80,0 L 320,394.667 l 80,0 L 400,74.667 z M 506.667,74.667l-80,0 L 426.667,501.333 l 80,0 L 506.667,74.667 z"  />
<glyph unicode="&#xe01a;" d="M 373.333,554.667l0-106.667 l-106.667,0 l0-106.667 L 160,341.333 l0-106.667 L 53.333,234.667 l0-213.333 l 506.667,0 L 560,554.667 L 373.333,554.667 z M 400,74.667l-80,0 L 320,394.667 l 80,0 L 400,74.667 z M 506.667,74.667l-80,0 L 426.667,501.333 l 80,0 L 506.667,74.667 z"  />
<glyph unicode="&#xe01b;" d="M 373.333,554.667l0-106.667 l-106.667,0 l0-106.667 L 160,341.333 l0-106.667 L 53.333,234.667 l0-213.333 l 506.667,0 L 560,554.667 L 373.333,554.667 z M 506.667,74.667l-80,0 L 426.667,501.333 l 80,0 L 506.667,74.667 z"  />
<glyph unicode="&#xe01c;" d="M 373.333,554.667l0-106.667 l-106.667,0 l0-106.667 L 160,341.333 l0-106.667 L 53.333,234.667 l0-213.333 l 506.667,0 L 560,554.667 L 373.333,554.667 z"  />
<glyph unicode="&#xe01d;" d="M 240.107,528l0-506.667 l 319.707,0 l0,213.333 l 79.893,0 L 639.707,528 L 240.107,528 z M 506.507,74.667l-213.12,0 l0,80 l 213.12,0 L 506.507,74.667 z M 506.507,181.333l-213.12,0 l0,80 l 213.12,0 L 506.507,181.333 z M 586.427,288L 293.387,288 
			L 293.387,368 l 293.040,0 L 586.427,288 z M 586.427,394.667L 293.387,394.667 L 293.387,474.667 l 293.040,0 L 586.427,394.667 z M 0.293,21.333l 186.533,0 L 186.827,528 L 0.293,528 L 0.293,21.333 z M 53.573,474.667l 79.947,0 l0-80 L 53.573,394.667 L 53.573,474.667 z M 53.573,368l 79.947,0 l0-80 L 53.573,288 L 53.573,368 z
			 M 53.573,261.333l 79.947,0 l0-80 L 53.573,181.333 L 53.573,261.333 z M 53.573,154.667l 79.947,0 l0-80 L 53.573,74.667 L 53.573,154.667 z"  />
<glyph unicode="&#xe01e;" d="M 26.667,554.667l0-560 l 559.467,0 L 586.133,554.667 L 26.667,554.667 z M 532.853,368l-133.227,0 L 399.627,501.333 l 133.227,0 L 532.853,368 z M 532.853,208l-133.227,0 l0,133.333 l 133.227,0 L 532.853,208 z M 532.853,48l-133.227,0 l0,133.333 l 133.227,0 L 532.853,48 z M 79.947,181.333
	l 133.227,0 l0-133.333 L 79.947,48 L 79.947,181.333 z M 79.947,341.333l 133.227,0 l0-133.333 L 79.947,208 L 79.947,341.333 z M 79.947,501.333l 133.227,0 l0-133.333 L 79.947,368 L 79.947,501.333 z M 373.013,368L 239.813,368 L 239.813,501.333 l 133.227,0 L 373.040,368 z M 373.013,208L 239.813,208 l0,133.333 l 133.227,0 
	L 373.040,208 z M 239.813,181.333l 133.227,0 l0-133.333 L 239.813,48 L 239.813,181.333 z"  />
<glyph unicode="&#xe01f;" d="M 559.787,440.56L 559.787,501.333 L 80.213,501.333 l0-60.773 l-79.92-26.667l0-251.76 l 79.92-26.667L 80.213,74.667 l 479.573,0 l0,60.773 l 79.92,26.667L 639.707,413.893 L 559.787,440.56z M 80.213,191.68
			l-26.64,8.88L 53.573,375.44 l 26.64,8.88L 80.213,191.68 z M 506.507,128L 133.493,128 L 133.493,448 l 373.013,0 L 506.507,128 z M 586.427,200.56l-26.64-8.88L 559.787,384.32 l 26.64-8.88L 586.427,200.56 z
			 M 479.867,421.333L 160.133,421.333 l0-266.667 l 319.733,0 L 479.867,421.333 z M 453.227,181.333L 186.773,181.333 L 186.773,394.667 l 266.453,0 L 453.227,181.333 z" />
<glyph unicode="&#xe020;" d="M 554.987,394.667c-10.987,31.040-40.613,53.333-75.36,53.333L 79.947,448 C 35.867,448,0,412.107,0,368l0-186.667 c0-44.107, 35.867-80, 79.947-80l 399.653,0 
	c 34.747,0, 64.373,22.293, 75.36,53.333l 57.84,0 L 612.8,394.667 L 554.987,394.667 z M 506.213,181.333c0-14.693-11.92-26.667-26.613-26.667L 79.947,154.667 c-14.72,0-26.667,11.973-26.667,26.667L 53.28,368 
	c0,14.693, 11.947,26.667, 26.667,26.667l 399.653,0 c 14.693,0, 26.613-11.973, 26.613-26.667L 506.213,181.333 z M 559.52,208l-26.64,0 l0,133.333 l 26.64,0 L 559.52,208 zM 269.253,208l 26.613,53.333l 133.227,0 l-159.84,80l-26.667-53.333L 109.36,288 L 269.253,208z"  />
<glyph unicode="&#xe021;" d="M 555.2,394.667c-10.987,31.040-40.613,53.333-75.36,53.333L 80.187,448 C 36.107,448, 0.267,412.107, 0.267,368l0-186.667 c0-44.107, 35.84-80, 79.92-80l 399.653,0 
		c 34.747,0, 64.373,22.293, 75.36,53.333l 57.867,0 L 613.067,394.667 L 555.2,394.667 z M 506.507,181.333c0-14.693-11.973-26.667-26.667-26.667L 80.187,154.667 c-14.72,0-26.64,11.973-26.64,26.667L 53.547,368 
		c0,14.693, 11.92,26.667, 26.64,26.667l 399.653,0 c 14.693,0, 26.667-11.973, 26.667-26.667L 506.507,181.333 z M 559.787,208l-26.667,0 l0,133.333 l 26.667,0 L 559.787,208 z"  />
<glyph unicode="&#xe022;" d="M 555.2,394.667c-10.987,31.040-40.613,53.333-75.36,53.333L 80.187,448 C 36.107,448, 0.267,412.107, 0.267,368l0-186.667 c0-44.107, 35.84-80, 79.92-80l 399.653,0 
		c 34.747,0, 64.373,22.293, 75.36,53.333l 57.867,0 L 613.067,394.667 L 555.2,394.667 z M 506.507,181.333c0-14.693-11.973-26.667-26.667-26.667L 80.187,154.667 c-14.72,0-26.64,11.973-26.64,26.667L 53.547,368 
		c0,14.693, 11.92,26.667, 26.64,26.667l 399.653,0 c 14.693,0, 26.667-11.973, 26.667-26.667L 506.507,181.333 z M 559.787,208l-26.667,0 l0,133.333 l 26.667,0 L 559.787,208 zM 80.187,314.667l0-80 c0-29.333, 17.973-53.333, 39.973-53.333l 39.947,0 L 160.107,368 L 120.16,368 C 98.16,368, 80.187,344, 80.187,314.667z"  />
<glyph unicode="&#xe023;" d="M 555.2,394.667c-10.987,31.040-40.613,53.333-75.36,53.333L 80.187,448 C 36.107,448, 0.267,412.107, 0.267,368l0-186.667 c0-44.107, 35.84-80, 79.92-80l 399.653,0 
		c 34.747,0, 64.373,22.293, 75.36,53.333l 57.867,0 L 613.067,394.667 L 555.2,394.667 z M 506.507,181.333c0-14.693-11.973-26.667-26.667-26.667L 80.187,154.667 c-14.72,0-26.64,11.973-26.64,26.667L 53.547,368 
		c0,14.693, 11.92,26.667, 26.64,26.667l 399.653,0 c 14.693,0, 26.667-11.973, 26.667-26.667L 506.507,181.333 z M 559.787,208l-26.667,0 l0,133.333 l 26.667,0 L 559.787,208 zM 186.747,368L 266.693,368L 266.693,181.333L 186.747,181.333zM 80.187,314.667l0-80 c0-29.333, 17.973-53.333, 39.973-53.333l 39.947,0 L 160.107,368 L 120.16,368 C 98.16,368, 80.187,344, 80.187,314.667z"  />
<glyph unicode="&#xe024;" d="M 555.2,394.667c-10.987,31.040-40.613,53.333-75.36,53.333L 80.187,448 C 36.107,448, 0.267,412.107, 0.267,368l0-186.667 c0-44.107, 35.84-80, 79.92-80l 399.653,0 
		c 34.747,0, 64.373,22.293, 75.36,53.333l 57.867,0 L 613.067,394.667 L 555.2,394.667 z M 506.507,181.333c0-14.693-11.973-26.667-26.667-26.667L 80.187,154.667 c-14.72,0-26.64,11.973-26.64,26.667L 53.547,368 
		c0,14.693, 11.92,26.667, 26.64,26.667l 399.653,0 c 14.693,0, 26.667-11.973, 26.667-26.667L 506.507,181.333 z M 559.787,208l-26.667,0 l0,133.333 l 26.667,0 L 559.787,208 zM 186.747,368L 266.693,368L 266.693,181.333L 186.747,181.333zM 293.333,368L 373.28,368L 373.28,181.333L 293.333,181.333zM 80.187,314.667l0-80 c0-29.333, 17.973-53.333, 39.973-53.333l 39.947,0 L 160.107,368 L 120.16,368 C 98.16,368, 80.187,344, 80.187,314.667z"  />
<glyph unicode="&#xe025;" d="M 555.2,394.667c-10.987,31.040-40.613,53.333-75.36,53.333L 80.187,448 C 36.107,448, 0.267,412.107, 0.267,368l0-186.667 c0-44.107, 35.84-80, 79.92-80l 399.653,0 
		c 34.747,0, 64.373,22.293, 75.36,53.333l 57.867,0 L 613.067,394.667 L 555.2,394.667 z M 506.507,181.333c0-14.693-11.973-26.667-26.667-26.667L 80.187,154.667 c-14.72,0-26.64,11.973-26.64,26.667L 53.547,368 
		c0,14.693, 11.92,26.667, 26.64,26.667l 399.653,0 c 14.693,0, 26.667-11.973, 26.667-26.667L 506.507,181.333 z M 559.787,208l-26.667,0 l0,133.333 l 26.667,0 L 559.787,208 zM 186.747,368L 266.693,368L 266.693,181.333L 186.747,181.333zM 293.333,368L 373.28,368L 373.28,181.333L 293.333,181.333zM 439.893,368l-40,0 l0-186.667 l 40,0 c 21.973,0, 39.947,24, 39.947,53.333l0,80 C 479.84,344, 461.867,368, 439.893,368zM 80.187,314.667l0-80 c0-29.333, 17.973-53.333, 39.973-53.333l 39.947,0 L 160.107,368 L 120.16,368 C 98.16,368, 80.187,344, 80.187,314.667z"  />
<glyph unicode="&#xe026;" d="M 266.613,381.387c 54.373,0, 98.72-40.827, 105.333-93.387l 93.76,0 c-0.88,12.587-2.587,24.933-5.653,36.773l 75.76,43.733l-53.36,92.427
		l-75.653-43.68C 382.933,440.747, 353.2,458.107, 320,467.307L 320,554.72 L 213.28,554.72 l0-87.413 C 180.080,458.133, 150.32,440.747, 126.453,417.28L 50.827,460.933l-53.36-92.427
		l 75.707-43.707c-4.133-16.053-6.587-32.747-6.587-50.080c0-17.333, 2.427-34.053, 6.587-50.080l-75.707-43.733l 53.36-92.4l 75.6,43.653
		c 23.867-23.493, 53.653-40.853, 86.853-50.027l0-87.413 L 320-5.28 L 320,54.667 l0,27.467 l0,100.72 c-15.76-9.173-33.84-14.827-53.387-14.827c-58.907,0-106.667,47.76-106.667,106.667
		S 207.707,381.387, 266.613,381.387zM 613.28,128c0,9.867-1.76,19.253-4.293,28.32l 49.52,28.587l-26.64,46.133L 582.693,202.667c-13.36,13.6-30.4,23.333-49.413,28.293L 533.28,288 L 480,288 
		l0-57.040 c-19.067-4.907-36.107-14.64-49.493-28.267l-49.093,28.347l-26.64-46.133l 49.413-28.507c-2.533-9.12-4.32-18.507-4.32-28.4
		s 1.787-19.307, 4.32-28.4l-49.413-28.507l 26.64-46.133l 49.093,28.347c 13.387-13.627, 30.453-23.36, 49.493-28.267L 480-32 l 53.28,0 l0,57.067 
		c 19.013,4.96, 36.053,14.693, 49.413,28.293l 49.2-28.4l 26.64,46.133l-49.52,28.587C 611.52,108.747, 613.28,118.133, 613.28,128z M 506.56,74.72
		c-29.44,0-53.28,23.867-53.28,53.28s 23.867,53.28, 53.28,53.28s 53.28-23.867, 53.28-53.28S 536,74.72, 506.56,74.72z"  />
<glyph unicode="&#xe027;" d="M 479.92,341.333l-240,0 L 239.92,461.333 L 66.747,288l 173.173-173.333L 239.92,234.667 l 241.253,0 c 28.8,0, 52.080,23.84, 52.080,53.333S 508.72,341.333, 479.92,341.333z"  />
<glyph unicode="&#xe028;" d="M 373.333,101.333l0,240 l 120,0 L 320,514.507L 146.667,341.333L 266.667,341.333 l0-241.253 C 266.667,71.28, 290.507,48, 320,48S 373.333,72.533, 373.333,101.333z"  />
<glyph unicode="&#xe029;" d="M 266.64,448l0-240 l-120,0 l 173.333-173.173l 173.333,173.173l-120,0 L 373.307,449.253 c0,28.8-23.84,52.080-53.333,52.080C 290.453,501.333, 266.64,476.8, 266.64,448z"  />
<glyph unicode="&#xe02a;" d="M 133.333,234.667l 240,0 l0-120 l 173.173,173.333L 373.333,461.333L 373.333,341.333 L 132.080,341.333 C 103.28,341.333, 80,317.493, 80,288S 104.533,234.667, 133.333,234.667z"  />
<glyph unicode="&#xe02b;" d="M 368.48,525.867c-119.627,0-218.533-83.147-233.547-200.347L 33.653,345.12L 133.333,197.68l 147.44,99.6l-92.72,17.947
	c 12.56,75.227, 90.373,157.28, 182.4,157.28c 100.533,0, 182.56-86.16, 182.56-186.72c0-100.56-100.267-182.347-180.267-182.347l0-53.333 c 133.333,0, 233.6,107.92, 233.6,237.867
	S 498.427,525.867, 368.48,525.867z"  />
<glyph unicode="&#xe02c;" d="M 146.267,307.067c 11.92,71.28, 85.6,149.013, 172.773,149.013c 50.427,0, 95.467-23.147, 126.987-58.827l 42.4,28.267
			c-41.413,49.2-102.853,81.093-171.253,81.093c-113.333,0-207.040-78.747-221.253-189.787L0,335.36l 94.427-139.653l 139.68,94.373L 146.267,307.067z
			 M 545.573,380.293l-139.68-94.373l 87.813-16.987c-11.893-71.28-85.6-149.040-172.773-149.013c-50.453,0-95.467,23.147-127.013,58.827l-42.373-28.267
			c 41.413-49.2, 102.853-81.093, 171.253-81.093c 113.307,0, 207.040,78.747, 221.227,189.787L 640,240.64L 545.573,380.293z"  />
<glyph unicode="&#xe02d;" d="M 340.48,581.333l-106.667-133.333l-106.667,0 C 83.013,448, 53.333,405.44, 53.333,361.333L 53.333,208 c0-44.107, 29.68-80, 73.813-80l 106.667,0 l 106.667-133.333c 26.667,0, 59.52,0, 59.52,0L 400,581.333 C 373.333,581.333, 367.147,581.333, 340.48,581.333z
	 M 213.333,181.333L 127.147,181.333 C 112.4,181.333, 106.667,193.307, 106.667,208L 106.667,361.333 C 106.667,376.027, 112.4,394.667, 127.147,394.667L 213.333,394.667 L 213.333,181.333 z M 346.667,74.667l-106.667,106.667l0,3.013 L 240,394.667 l 106.667,106.667L 346.667,74.667 zM 453.333,421.333l0-55.547 c 53.333-11.067, 53.333-40.4, 53.333-75.067c0-34.747,0-64.053-53.333-75.093l0-55.547 c 80,12.4, 106.667,66.24, 106.667,130.64C 560,355.093, 533.333,408.933, 453.333,421.333z"  />
<glyph unicode="&#xe02e;" d="M 313.813,581.333l-106.667-133.333l-106.667,0 C 56.347,448, 26.667,405.44, 26.667,361.333L 26.667,208 c0-44.107, 29.68-80, 73.813-80l 106.667,0 l 106.667-133.333c 26.667,0, 59.52,0, 59.52,0L 373.333,581.333 C 346.667,581.333, 340.48,581.333, 313.813,581.333z
	 M 186.667,181.333L 100.48,181.333 C 85.733,181.333, 80,193.307, 80,208L 80,361.333 C 80,376.027, 85.733,394.667, 100.48,394.667L 186.667,394.667 L 186.667,181.333 z M 320,74.667l-106.667,106.667l0,3.013 L 213.333,394.667 l 106.667,106.667L 320,74.667 zM 613.333,314.667L 560,314.667L 560,368L 506.667,368L 506.667,314.667L 453.333,314.667L 453.333,261.333L 506.667,261.333L 506.667,208L 560,208L 560,261.333L 613.333,261.333 z"  />
<glyph unicode="&#xe02f;" d="M 313.813,581.333l-106.667-133.333l-106.667,0 C 56.347,448, 26.667,405.44, 26.667,361.333L 26.667,208 c0-44.107, 29.68-80, 73.813-80l 106.667,0 l 106.667-133.333c 26.667,0, 59.52,0, 59.52,0L 373.333,581.333 C 346.667,581.333, 340.48,581.333, 313.813,581.333z
	 M 186.667,181.333L 100.48,181.333 C 85.733,181.333, 80,193.307, 80,208L 80,361.333 C 80,376.027, 85.733,394.667, 100.48,394.667L 186.667,394.667 L 186.667,181.333 z M 320,74.667l-106.667,106.667l0,3.013 L 213.333,394.667 l 106.667,106.667L 320,74.667 zM 453.333,314.667L 613.333,314.667L 613.333,261.333L 453.333,261.333z"  />
<glyph unicode="&#xe030;" d="M 373.333,254.88L 373.333,74.667 l-90.107,90.107L 246.453,128l 14,0 l 106.667-133.333c 26.667,0, 59.52,0, 59.52,0L 426.64,308.213 L 373.333,254.88zM 133.787,203.867C 133.68,205.253, 133.333,206.533, 133.333,208L 133.333,361.333 C 133.333,376.027, 139.067,394.667, 153.813,394.667L 240,394.667 l0-84.587 l 26.667,26.667L 266.667,394.667 l 106.667,106.667l0-57.92 l 53.333,53.333L 426.667,581.333 
		c-26.667,0-32.853,0-59.52,0l-106.667-133.333l-106.667,0 C 109.68,448, 80,405.44, 80,361.333L 80,208 c0-16.96, 4.453-32.613, 12.347-45.573L 133.787,203.867zM 91.040,29.147L 53.333,66.853l 493.333,493.333l 37.707-37.707L 91.040,29.147z"  />
<glyph unicode="&#xe031;" d="M 373.333,581.333L 240,581.333 C 195.84,581.333, 160,545.52, 160,501.333l0-240 c0-44.187, 35.84-80, 80-80l 133.333,0 c 44.16,0, 80,35.813, 80,80L 453.333,501.333 C 453.333,545.52, 417.493,581.333, 373.333,581.333z M 400,448l0-26.667 l-53.333,0 l0-26.667 l 53.333,0 l0-26.667 l-53.333,0 
		l0-26.667 l 53.333,0 l0-26.667 l-53.333,0 l0-26.667 l 53.333,0 l0-26.667 c0-14.693, 1.92-26.667-12.773-26.667L 226.107,234.667 C 211.413,234.667, 213.333,246.64, 213.333,261.333l0,26.667 l 53.333,0 l0,26.667 L 213.333,314.667 l0,26.667 l 53.333,0 L 266.667,368 L 213.333,368 L 213.333,394.667 l 53.333,0 L 266.667,421.333 L 213.333,421.333 L 213.333,448 l 53.333,0 L 266.667,474.667 L 213.333,474.667 L 213.333,501.333 
		c0,14.693-1.92,26.667, 12.773,26.667l 161.093,0 C 401.92,528, 400,516.027, 400,501.333l0-26.667 l-53.333,0 l0-26.667 L 400,448 zM 506.667,288l0,53.333 l-26.667,0 l0-133.333 c0-29.893-19.44-53.333-62-53.333l-222.667,0 C 152.773,154.667, 133.333,178.107, 133.333,208l0,133.333 L 106.667,341.333 l0-53.333 L 80,288 l0-53.333 l 26.667,0 l0-26.667 c0-59.813, 16.213-80, 88.667-80L 240,128 l0-80 L 186.667,48 l0-53.333 l 240,0 
		l0,53.333 l-53.333,0 l0,80 l 44.667,0 C 490.453,128, 506.667,148.187, 506.667,208l0,26.667 l 26.667,0 l0,53.333 L 506.667,288 z"  />
<glyph unicode="&#xe032;" d="M 106.667,214.453l 26.667,26.667L 133.333,341.333 L 106.667,341.333 l0-53.333 L 80,288 l0-53.333 l 26.667,0 L 106.667,214.453 z M 506.667,288l0,53.333 l-26.667,0 l0-133.333 c0-29.893-51.84-53.333-94.4-53.333
			L 254.613,154.667 l-53.333-26.667L 240,128 l0-80 L 186.667,48 l0-53.333 l 240,0 l0,53.333 l-53.333,0 l0,80 l 12.267,0 c 72.453,0, 121.067,20.187, 121.067,80l0,26.667 l 26.667,0 l0,53.333 L 506.667,288 z M 346.667,448L 346.667,474.667 l-26.667,0 l0-26.667 L 346.667,448 z M 213.333,341.333l 53.333,0 L 266.667,368 L 213.333,368 L 213.333,394.667 l 53.333,0 L 266.667,421.333 L 213.333,421.333 L 213.333,448 l 53.333,0 L 266.667,474.667 L 213.333,474.667 L 213.333,501.333 
			c0,14.693-6.56,26.667, 8.16,26.667l 133.333,0 c 12.8,0, 23.013-9.253, 25.573-21.307l 40.107,40.107C 406.053,567.627, 382.027,581.333, 354.827,581.333l-133.333,0 C 177.36,581.333, 160,545.44, 160,501.333
			l0-233.547 l 53.333,53.333L 213.333,341.333 z M 354.827,234.667l-46.88,0 l-53.333-53.333l 100.213,0 C 398.933,181.333, 453.333,217.227, 453.333,261.333L 453.333,361.547 l-53.333-53.333L 400,261.333 C 400,246.64, 369.52,234.667, 354.827,234.667z
			 M 468.16,517.44l-373.333-373.333l 26.667-53.333l 373.333,373.333L 468.16,517.44z"  />
<glyph unicode="&#xe033;" d="M 237.147,582.987l-114.96-84.8L 106.667,501.333l0-453.333 l 346.667-80L 453.333,421.333 L 192.053,482.507l 56.533,43.84L 506.667,474.667l0-213.333 l 26.667,0 L 533.333,523.573 L 237.147,582.987z"  />
<glyph unicode="&#xe034;" d="M 239.467-5.333L 87.2,261.173l 92.613,52.907l 61.040-106.773L 460.88,581.333l 91.92-54.053L 239.467-5.333z"  />
<glyph unicode="&#xe035;" d="M 106.667,448l 257.387-0.373l 31.413,53.333L 53.333,501.333l0-266.667 l 53.333,53.333L 106.667,448 z M 106.667,74.667c-1.040,1.813, 0.613,64.080, 0.613,80.16C 79.040,196.587, 53.333,234.667, 53.333,234.667l0-213.333 
			l 153.013-0.373c0,0-15.573,23.067-35.787,52.96C 149.707,73.947, 117.28,74.667, 106.667,74.667z M 506.667,74.667l-158.427-0.373l-31.413-53.333L 560,21.333L 560,394.667 l-53.333-53.333L 506.667,74.667 z
			 M 480.373,568l-220-374l-61.040,106.773l-92.613-52.907L 259.013-18.667L 572.293,513.947L 480.373,568z"  />
<glyph unicode="&#xe036;" d="M 53.333,501.333l0-480 l 506.667,0 L 560,501.333 L 53.333,501.333 z M 506.667,74.667L 106.667,74.667 L 106.667,448 l 400,0 L 506.667,74.667 z M 453.28,288L 160,288 l0-80 l 293.28,0 L 453.28,288 z"  />
<glyph unicode="&#xe037;" d="M 564.507,482.48l-75.413,75.413c-52,51.973-136.587,51.973-188.56,0l-264-263.973l 37.707-37.707l 264,263.973
	c 31.2,31.2, 81.947,31.2, 113.12,0l 75.44-75.44c 31.2-31.173, 31.2-81.92,0-113.12l-263.973-263.973c-34-34-71.813-41.307-81.947-31.2
	L 168.533,48.773l-18.853,18.853l-41.253,41.253c-4.693,4.693-0.853,29.84, 12.96,43.653l 263.92,263.92c 3.093,3.067, 28.32-9.44, 47.147-28.293l0,0
	c-8.24-8.24-6.32-6.347-9.413-9.44l-191.52-191.493l 37.707-37.707l 191.52,191.493c 22.8,22.773, 51.147,43.147, 9.44,84.853l0,0
	c-41.68,41.707-83.653,67.2-122.56,28.293l-264-263.92c-31.147-31.2-43.28-88.693-12.907-119.067l 41.2-41.253l0,0l 31.253-31.2
	c 35.36-35.36, 104.48-21.653, 157.333,31.2l 263.973,263.973C 616.48,345.893, 616.48,430.48, 564.507,482.48z"  />
<glyph unicode="&#xe038;" d="M 400,314.667L 400,608L 266.667,608L 266.667,314.667L 161.253,314.667L 330.933,144.96L 500.613,314.667 		zM 537.6,421.333L 453.333,421.333 l0-53.333 l 84.267,0 C 552.293,368, 560,367.573, 560,352.907l0-106.667 l0-93.333 C 560,130.827, 546.293,101.333, 524.267,101.333L 115.787,101.333 c-22.027,0-35.733,29.493-35.733,51.573
	l0,93.333 l0,106.667 C 80.053,367.573, 87.76,368, 102.453,368l 84.267,0 L 186.72,421.333 l-84.267,0 c-44.107,0-75.733-24.32-75.733-68.427l0-293.333 c0-44.107, 31.627-91.573, 75.733-91.573L 537.6-32 
	c 44.107,0, 75.733,47.44, 75.733,91.573l0,293.333 C 613.333,397.013, 581.707,421.333, 537.6,421.333z M 560,59.573C 560,44.88, 552.293,21.333, 537.6,21.333L 102.453,21.333 
	c-14.693,0-22.4,23.547-22.4,38.24l0,40.347 c0-8.453, 20.667-25.227, 35.733-25.227L 524.267,74.693 c 15.040,0, 35.733,16.773, 35.733,25.227L 560,59.573 z"  />
<glyph unicode="&#xe039;" d="M 586.293,372.773l-75.6,235.013l-244.16-75.467L 53.307,138.267l 314.613-170.053l 212.693,393.093c 0.16,0.267, 0.32,0.56, 0.453,0.8
	l 5.653,10.453L 586.293,372.773z M 472.8,385.733c-19.253-35.68-63.813-48.96-99.52-29.68c-35.707,19.333-48.96,63.867-29.653,99.493
	c 19.28,35.707, 63.893,48.96, 99.547,29.68C 478.853,465.947, 492.133,421.387, 472.8,385.733z"  />
<glyph unicode="&#xe03a;" d="M 400,501.333L 400,581.333 L 240,581.333 l0-80 L 133.333,501.333 l0-53.333 l 373.333,0 L 506.667,501.333 L 400,501.333 z M 347.147,501.333l-53.333,0 L 293.813,528 l 53.333,0 L 347.147,501.333 zM 133.333,421.333l0-400 l 53.333-53.333l 266.667,0 l 53.333,53.333L 506.667,421.333 L 133.333,421.333 z M 213.333,21.333L 186.667,21.333 L 186.667,314.667 l 26.667,0 L 213.333,21.333 z M 266.667,21.333L 240,21.333 L 240,314.667 l 26.667,0 L 266.667,21.333 z M 320,21.333l-26.667,0 L 293.333,314.667 l 26.667,0 L 320,21.333 z M 453.333,21.333l-106.667,0 L 346.667,314.667 l 106.667,0 L 453.333,21.333 z M 453.333,341.333L 186.667,341.333 L 186.667,368 l 266.667,0 L 453.333,341.333 z"  />
<glyph unicode="&#xe03b;" d="M 21.147,43.52l 37.707-37.707l 116.933,116.933l-36.72,38.693L 21.147,43.52z M 376.667,581.333C 246,581.333, 140,475.36, 140,344.667
			c0-51.173, 16.453-98.4, 44.053-137.147l 44.533-46.933c 40.56-32.72, 91.92-52.613, 148.080-52.613c 130.72,0, 236.667,105.973, 236.667,236.667
			S 507.387,581.333, 376.667,581.333z M 376.667,161.333c-101.093,0-183.333,82.24-183.333,183.333S 275.573,528, 376.667,528S 560,445.76, 560,344.667
			S 477.76,161.333, 376.667,161.333z"  />
<glyph unicode="&#xe03c;" d="M 21.147,43.52l 37.707-37.707l 116.933,116.933l-36.72,38.693L 21.147,43.52z M 376.667,581.333C 245.973,581.333, 140,475.36, 140,344.667
			c0-51.173, 16.453-98.4, 44.053-137.147l 44.533-46.933c 40.56-32.72, 91.893-52.613, 148.080-52.613c 130.693,0, 236.667,105.973, 236.667,236.667
			S 507.36,581.333, 376.667,581.333z M 376.667,161.333c-101.093,0-183.333,82.24-183.333,183.333S 275.573,528, 376.667,528S 560,445.76, 560,344.667
			S 477.76,161.333, 376.667,161.333z M 400.587,421.333l-53.333,0 l0-53.333 l-53.333,0 l0-53.333 l 53.333,0 l0-53.333 l 53.333,0 l0,53.333 l 53.333,0 L 453.92,368 l-53.333,0 L 400.587,421.333 z"  />
<glyph unicode="&#xe03d;" d="M 21.147,43.52l 37.707-37.707l 116.933,116.933l-36.72,38.693L 21.147,43.52z M 376.667,581.333C 245.973,581.333, 140,475.36, 140,344.667
			c0-51.173, 16.453-98.4, 44.053-137.147l 44.533-46.933c 40.56-32.72, 91.893-52.613, 148.080-52.613c 130.693,0, 236.667,105.973, 236.667,236.667
			S 507.36,581.333, 376.667,581.333z M 376.667,161.333c-101.093,0-183.333,82.24-183.333,183.333S 275.573,528, 376.667,528S 560,445.76, 560,344.667
			S 477.76,161.333, 376.667,161.333zM 293.28,367.947L 453.28,367.947L 453.28,314.613L 293.28,314.613z"  />
<glyph unicode="&#xe03e;" d="M 533.333,581.333L 80,581.333 C 35.893,581.333,0,545.44,0,501.333l0-320 c0-44.107, 53.333-53.333, 80-53.333l0-160 l 240,160l 213.333,0 c 44.107,0, 80,35.893, 80,80L 613.333,501.333 
	C 613.333,545.44, 577.44,581.333, 533.333,581.333z M 560,208c0-14.693-11.973-26.667-26.667-26.667l-240,0 l-160-133.333l0,133.333 L 80,181.333 c-14.693,0-26.667,11.973-26.667,26.667L 53.333,501.333 c0,14.693, 11.973,26.667, 26.667,26.667l 453.333,0 
	c 14.693,0, 26.667-11.973, 26.667-26.667L 560,208 z"  />
<glyph unicode="&#xe03f;" d="M 173.333,368C 195.413,368, 213.333,350.107, 213.333,328S 195.413,288, 173.333,288S 133.333,305.893, 133.333,328S 151.253,368, 173.333,368zM 533.333,581.333L 80,581.333 C 35.893,581.333,0,545.44,0,501.333l0-320 c0-44.107, 53.333-53.333, 80-53.333l0-160 l 240,160l 213.333,0 c 44.107,0, 80,35.893, 80,80L 613.333,501.333 
	C 613.333,545.44, 577.44,581.333, 533.333,581.333z M 560,208c0-14.693-11.973-26.667-26.667-26.667l-240,0 l-160-133.333l0,133.333 L 80,181.333 c-14.693,0-26.667,11.973-26.667,26.667L 53.333,501.333 c0,14.693, 11.973,26.667, 26.667,26.667l 453.333,0 
	c 14.693,0, 26.667-11.973, 26.667-26.667L 560,208 z"  />
<glyph unicode="&#xe040;" d="M 173.333,368C 195.413,368, 213.333,350.107, 213.333,328S 195.413,288, 173.333,288S 133.333,305.893, 133.333,328S 151.253,368, 173.333,368zM 306.667,368c 22.080,0, 40-17.893, 40-40S 328.747,288, 306.667,288S 266.667,305.893, 266.667,328
	S 284.587,368, 306.667,368zM 533.333,581.333L 80,581.333 C 35.893,581.333,0,545.44,0,501.333l0-320 c0-44.107, 53.333-53.333, 80-53.333l0-160 l 240,160l 213.333,0 c 44.107,0, 80,35.893, 80,80L 613.333,501.333 
	C 613.333,545.44, 577.44,581.333, 533.333,581.333z M 560,208c0-14.693-11.973-26.667-26.667-26.667l-240,0 l-160-133.333l0,133.333 L 80,181.333 c-14.693,0-26.667,11.973-26.667,26.667L 53.333,501.333 c0,14.693, 11.973,26.667, 26.667,26.667l 453.333,0 
	c 14.693,0, 26.667-11.973, 26.667-26.667L 560,208 z"  />
<glyph unicode="&#xe041;" d="M 173.333,368C 195.413,368, 213.333,350.107, 213.333,328S 195.413,288, 173.333,288S 133.333,305.893, 133.333,328S 151.253,368, 173.333,368zM 306.667,368c 22.080,0, 40-17.893, 40-40S 328.747,288, 306.667,288S 266.667,305.893, 266.667,328
	S 284.587,368, 306.667,368zM 440,368c 22.080,0, 40-17.893, 40-40S 462.080,288, 440,288S 400,305.893, 400,328
	S 417.92,368, 440,368zM 533.333,581.333L 80,581.333 C 35.893,581.333,0,545.44,0,501.333l0-320 c0-44.107, 53.333-53.333, 80-53.333l0-160 l 240,160l 213.333,0 c 44.107,0, 80,35.893, 80,80L 613.333,501.333 
	C 613.333,545.44, 577.44,581.333, 533.333,581.333z M 560,208c0-14.693-11.973-26.667-26.667-26.667l-240,0 l-160-133.333l0,133.333 L 80,181.333 c-14.693,0-26.667,11.973-26.667,26.667L 53.333,501.333 c0,14.693, 11.973,26.667, 26.667,26.667l 453.333,0 
	c 14.693,0, 26.667-11.973, 26.667-26.667L 560,208 z"  />
<glyph unicode="&#xe042;" d="M 533.333,581.333L 80,581.333 C 35.893,581.333,0,545.44,0,501.333l0-320 c0-44.107, 53.333-53.333, 80-53.333l0-160 l 240,160l 213.333,0 c 44.107,0, 80,35.893, 80,80L 613.333,501.333 
		C 613.333,545.44, 577.44,581.333, 533.333,581.333z M 560,208c0-14.693-11.973-26.667-26.667-26.667l-240,0 l-160-133.333l0,133.333 L 80,181.333 c-14.693,0-26.667,11.973-26.667,26.667L 53.333,501.333 c0,14.693, 11.973,26.667, 26.667,26.667l 453.333,0 
		c 14.693,0, 26.667-11.973, 26.667-26.667L 560,208 zM 106.667,448L 426.667,448L 426.667,394.667L 106.667,394.667zM 106.667,368L 506.667,368L 506.667,341.333L 106.667,341.333zM 106.667,314.667L 506.667,314.667L 506.667,288L 106.667,288zM 106.667,261.333L 320,261.333L 320,234.667L 106.667,234.667z"  />
<glyph unicode="&#xe043;" d="M 533.333,501.333L 533.333,608 l-160,0 l0-106.667 l-106.667,0 L 266.667,608 L 106.667,608 l0-106.667 L0,501.333 l0-506.667 l 640,0 L 640,501.333 L 533.333,501.333 z M 426.667,554.667l 53.333,0 l0-106.667 l-53.333,0 L 426.667,554.667 z M 160,554.667l 53.333,0 l0-106.667 L 160,448 L 160,554.667 z M 586.667,48L 53.333,48 L 53.333,341.333 l 533.333,0 L 586.667,48 z M 586.667,368L 53.333,368 L 53.333,448 l 53.333,0 l0-53.333 l 160,0 L 266.667,448 l 106.667,0 l0-53.333 l 160,0 L 533.333,448 l 53.333,0 L 586.667,368 zM 133.36,261.36L 186.64,261.36L 186.64,208.027L 133.36,208.027zM 213.36,261.36L 266.64,261.36L 266.64,208.027L 213.36,208.027zM 293.28,261.36L 346.56,261.36L 346.56,208.027L 293.28,208.027zM 373.28,261.36L 426.56,261.36L 426.56,208.027L 373.28,208.027zM 453.36,261.36L 506.64,261.36L 506.64,208.027L 453.36,208.027zM 133.36,181.387L 186.64,181.387L 186.64,128.053L 133.36,128.053zM 213.36,181.387L 266.64,181.387L 266.64,128.053L 213.36,128.053zM 293.28,181.387L 346.56,181.387L 346.56,128.053L 293.28,128.053z"  />
<glyph unicode="&#xe044;" d="M 80,608l0-618.133 l 218.187,127.040L 533.333-20.027L 533.333,608 L 80,608 z M 133.333,82.64L 133.333,554.667 l 160,0 l0-383.333 l-16.987-8.32L 133.333,82.64z M 480,72.747l-148.32,90.267L 320,170.773L 320,554.667 l 160,0 
	L 480,72.747 z"  />
<glyph unicode="&#xe045;" d="M 287.493,227.36L 266.667,21.333l 127.2,157.147l 121.707-54.933L 640,554.667L 287.493,227.36z M 640,554.667L0,291.6L 151.093,261.333L 266.667,21.333l-83.333,240L 640,554.667z"  />
<glyph unicode="&#xe046;" d="M 320,83.893l-0.933-1.147L 106.667,354.667C 96.987,366.88, 80,381.627, 80,415.147c0,58.827, 47.867,106.667, 106.667,106.667c 58.827,0, 133.333-47.84, 133.333-106.667L 320,503.493 
	c-28.667,43.147-77.733,71.653-133.333,71.653c-88.24,0-160-71.76-160-160c0-54.827, 26.667-80, 33.547-97.84L 320,2.053L 320,83.893 zM 320,83.893l 0.933-1.147L 533.333,354.667c 9.68,12.213, 26.667,26.96, 26.667,60.48c0,58.827-47.867,106.667-106.667,106.667s-133.333-47.84-133.333-106.667L 320,503.493 
	c 28.693,43.147, 77.76,71.653, 133.333,71.653c 88.24,0, 160-71.76, 160-160c0-54.827-26.667-80-33.547-97.84L 320,2.053L 320,83.893 z"  />
<glyph unicode="&#xe047;" d="M 325.307,299.573L 213.333,411.547L 213.333,341.333 L 26.667,341.333 l0-80 l 186.667,0 l0-73.76 L 325.307,299.573zM 240,581.333L 240,491.547L 293.333,438.213L 293.333,528L 509.040,528L 346.667,474.667L 346.667,154.667L 293.333,154.667L 293.333,160.907L 240,107.573L 240,101.333L 346.667,101.333L 346.667-5.333L 586.667,74.667L 586.667,581.333 z"  />
<glyph unicode="&#xe048;" d="M 510.027,48c 76.373,0, 126.827,84.293, 126.827,170c0,73.653-60.8,138.96-134.24,148.747l-12.187,32.507C 460.853,477.44, 388.773,528, 306.773,528
	c-109.387,0-198.347-89.707-198.347-200c0-4.827, 0.24-9.547, 0.667-14.133c-59.547-6.907-105.947-57.707-105.947-119.2
	c0-57.093, 44.347-138.48, 106.88-146.667L 510.027,48 z M 372.4,267.307L 372.4,267.307c 23.68,34.080, 71.333,37.547, 92.613,47.893L 465.2,314.667l 18.453,0 
	c 52.267,0, 99.84-40, 99.84-90.613c0-49.12-32.56-122.72-85.147-122.72L 113.093,101.333 c-29.307,0-56.613,63.28-56.613,99.387
	c 0.027,41.147, 36.427,71.013, 79.413,62.293l 41.36-9.867l-10.16,40.187c-2.667,10.613-5.333,22.773-5.333,35.040c0,80.88, 65.040,146.48, 145.013,146.48
	c 60.533,0, 111.76-36.187, 133.76-94.293c-53.947-31.893-70.507-107.6-70.507-107.6"  />
<glyph unicode="&#xe049;" d="M 265.227,358.32c-45.147,34.907-100.133,71.893-186.667,78.907L 265.227,358.32zM 265.227,278.32c-45.147,34.907-100.133,71.893-186.667,78.907L 265.227,278.32zM 185.2,249.307c-29.733,13.947-64.427,24.507-106.64,27.92L 185.2,249.307zM 348.107,358.32l 186.667,78.907C 448.24,430.213, 393.253,393.2, 348.107,358.32zM 348.107,278.32l 186.667,78.907C 448.24,350.213, 393.253,313.2, 348.107,278.32zM 534.773,277.227c-42.213-3.413-76.907-13.947-106.64-27.92L 534.773,277.227zM 588.107,598.32c-116.8,0-223.707-54.533-277.733-97.707l-7.387,0 C 248.933,543.787, 142.027,598.32, 25.227,598.32L0,598.32 l0-506.667 l 25.227,0 
		c 86.293,0, 181.947-33.227, 224.48-65.307c 12.64-9.573, 24.187-19.573, 34.347-29.76l 21.36-19.6l 2.507,0 l 21.36,19.6
		c 10.16,10.187, 21.707,20.187, 34.347,29.76c 42.533,32.080, 138.187,65.307, 224.48,65.307L 613.333,91.653 l0,506.667 L 588.107,598.32 z M 293.333,60.773
		c0,2.72-6.507,5.467-10.027,8.133C 238.693,102.533, 133.333,138.133, 53.333,144.107L 53.333,543.893 c 106.667-8.16, 193.68-59.973, 231.493-97.653l 7.227-7.92L 293.333,438.32 L 293.333,60.773 z
		 M 560,144.107c-80-5.973-185.36-41.573-229.973-75.2C 326.507,66.24, 320,63.467, 320,60.773L 320,438.32 l 1.307,0 l 7.227,7.92
		C 366.32,483.92, 453.333,535.733, 560,543.893L 560,144.107 z"  />
<glyph unicode="&#xe04a;" d="M 489.707-19.28c-10.107-0.053-20.72,2.853-31.573,8.587l-103.36,54.32c-17.28,9.12-52.267,9.12-69.6,0L 181.867-10.693
	c-25.867-13.6-51.76-10.373-66.507,7.093c-7.12,8.427-14.693,23.76-10.4,48.747l 19.733,115.093c 3.467,20.267-6.8,51.813-21.52,66.187
	l-83.653,81.493C 2,325.067-4.613,345.413, 1.36,363.813c 6,18.373, 23.333,30.96, 47.6,34.48l 115.52,16.8
	c 20.373,2.96, 47.227,22.453, 56.293,40.88l 51.707,104.747C 283.333,582.693, 300.64,595.28, 320,595.28s 36.667-12.613, 47.493-34.587l 51.707-104.747
	c 9.093-18.427, 35.947-37.92, 56.293-40.88l 115.52-16.8c 24.267-3.52, 41.627-16.107, 47.6-34.48c 5.973-18.373-0.64-38.747-18.213-55.893
	l-83.653-81.493c-14.72-14.373-24.987-45.947-21.52-66.187l 19.733-115.093c 4.293-25.013-3.28-40.32-10.4-48.693
	C 516.107-13.707, 503.68-19.28, 489.707-19.28z M 320,104.133c 22.133,0, 43.307-4.747, 59.6-13.333l 102.747-54l-19.6,114.427
	c-6.48,37.813, 9.36,86.56, 36.827,113.387l 83.147,80.987l-114.853,16.72c-38.027,5.52-79.493,35.627-96.453,70.053L 320,536.453l-51.413-104.080
	c-16.96-34.427-58.427-64.533-96.453-70.053L 57.28,345.6l 83.147-80.987c 27.467-26.827, 43.307-75.573, 36.827-113.387L 157.653,36.8l 102.72,54
	C 276.693,99.413, 297.867,104.133, 320,104.133z"  />
<glyph unicode="&#xe04b;" d="M 320,608C 143.28,608,0,464.72,0,288s 143.28-320, 320-320s 320,143.28, 320,320S 496.72,608, 320,608z M 320,21.333C 172.96,21.333, 53.333,140.96, 53.333,288S 172.96,554.667, 320,554.667
	s 266.667-119.627, 266.667-266.667S 467.040,21.333, 320,21.333zM 438.587,471.867c-13.173,6.56-29.2,1.227-35.787-11.92l-90.107-180.24l-53.867,53.84c-10.427,10.427-27.28,10.427-37.707,0
	s-10.427-27.28,0-37.707l 80-80C 306.187,210.773, 312.96,208, 320,208c 1.413,0, 2.853,0.107, 4.267,0.347c 8.453,1.387, 15.733,6.747, 19.573,14.4l 106.667,213.333
	C 457.12,449.253, 451.76,465.253, 438.587,471.867zM 293.387,101.387L 346.72,101.387L 346.72,74.667L 293.387,74.667zM 293.387,528L 346.72,528L 346.72,501.28L 293.387,501.28zM 80,314.72L 133.333,314.72L 133.333,288L 80,288zM 506.613,314.72L 559.947,314.72L 559.947,288L 506.613,288z"  />
<glyph unicode="&#xe04c;" d="M 586.667,368l-53.333,0 L 533.333,581.333 L 106.667,581.333 l0-213.333 L 53.333,368 c-29.333,0-53.333-24-53.333-53.333l0-266.667 c0-29.333, 18-53.333, 40-53.333L 106.667-5.333 l0-26.667 l 426.667,0 l0,26.667 l 66.667,0 c 22,0, 40,24, 40,53.333L 640,314.667 C 640,344, 616,368, 586.667,368z
	 M 106.667,21.333L 80,21.333 l0,133.333 l 26.667,0 L 106.667,21.333 z M 480,21.333L 160,21.333 l0,133.333 l 53.333,0 l0-26.667 l 213.333,0 l0,26.667 l 53.333,0 L 480,21.333 z M 480,368L 160,368 L 160,528 l 320,0 L 480,368 z M 560,21.333l-26.667,0 l0,133.333 l 26.667,0 L 560,21.333 z M 586.667,288l-53.333,0 l0,26.667 l 53.333,0 L 586.667,288 zM 213.333,74.667l 213.333,0 l0,26.667 L 213.333,101.333 L 213.333,74.667 z"  />
<glyph unicode="&#xe04d;" d="M 560,403.973L 560,581.333 l-133.333,0 l0-79.013 L 319.52,581.333L0,341.333l 80,0 l0-346.667 l 480,0 L 560,341.333 l 80-0.053L 560,403.973z M 320,48L 213.333,48 l0,213.333 l 106.667,0 L 320,48 z M 506.667,48l-160,0 l0,240 L 186.667,288 l0-240 L 133.333,48 L 133.333,368 l 186.907,133.333L 506.667,368
			L 506.667,48 z M 506.667,471.147l-26.667,17.787L 480,528 l 26.667,0 L 506.667,471.147 z M 480,234.667l-106.667,0 l0-106.667 l 106.667,0 L 480,234.667 z M 453.333,154.667l-53.333,0 l0,53.333 l 53.333,0 L 453.333,154.667 z M 293.333,154.667l-26.667,0 l0-26.667 l 26.667,0 L 293.333,154.667 z"  />
<glyph unicode="&#xe04e;" d="M 506.613,554.72l0-11.067 c-26.64,7.893-47.173,12.293-71.68,12.293c-47.813,0-95.467-14.907-140.32-29.307
	C 251.813,512.933, 210.693,499.92, 171.28,499.92c-29.84,0-54.213,7.787-79.147,23.787L 53.333,550.107l0-410.027 l 9.68-7.867
	c 33.76-21.707, 68.533-32.293, 108.907-32.293c 47.787,0, 93.52,14.907, 138.347,29.333c 42.8,13.76, 85.52,26.72, 124.987,26.72
	c 25.013,0, 44.747-5.84, 71.413-17.040l0-172.24 l 53.333,0 L 560,553.333 L 560,554.72 L 506.613,554.72 z M 506.667,197.52c-26.667,7.92-47.227,11.76-71.707,11.76
	c-47.813,0-95.467-14.907-140.32-29.28c-42.827-13.76-81.36-26.773-120.773-26.773c-25.013,0-40.533,5.467-67.2,16.667L 106.667,458.373 
	c 26.667-7.893, 42.080-11.76, 66.56-11.76c 47.76,0, 92.853,14.907, 137.707,29.307c 42.8,13.76, 85.2,26.747, 124.64,26.747
	C 460.56,502.64, 480,497.173, 506.667,486L 506.667,197.52 z"  />
<glyph unicode="&#xe04f;" d="M 320,608C 143.28,608,0,464.72,0,288s 143.28-320, 320-320s 320,143.28, 320,320S 496.72,608, 320,608z M 320,21.333C 172.96,21.333, 53.333,140.96, 53.333,288S 172.96,554.667, 320,554.667
			s 266.667-119.627, 266.667-266.667S 467.040,21.333, 320,21.333z M 189.547,456.827c0,0-0.080-0.080-0.107-0.080C 189.44,456.72, 189.44,456.72, 189.44,456.72
			C 189.387,456.693, 189.36,456.64, 189.333,456.64C 189.307,456.613, 189.307,456.613, 189.28,456.587C 189.227,456.56, 189.147,456.48, 189.093,456.453
			C 189.067,456.427, 189.067,456.427, 189.067,456.427C 189.013,456.373, 188.987,456.373, 188.96,456.347L 188.907,456.32C 188.88,456.293, 188.853,456.293, 188.827,456.24
			c-0.027,0-0.080-0.027-0.107-0.053c0,0-0.027-0.027-0.053-0.053C 188.613,456.107, 188.587,456.080, 188.533,456.027c0,0-0.053-0.027-0.053-0.053
			c-0.053,0-0.080-0.053-0.107-0.053c0,0-0.027-0.053-0.053-0.053L 188.24,455.787C 188.213,455.76, 188.213,455.76, 188.213,455.76
			C 188.133,455.707, 188.080,455.653, 188.027,455.627l0-0.027 C 187.973,455.573, 187.92,455.547, 187.893,455.493c0,0-0.027,0-0.053,0
			C 187.813,455.44, 187.76,455.413, 187.733,455.387c0,0-0.027-0.027-0.053-0.053C 187.573,455.28, 187.493,455.2, 187.387,455.147
			C 187.36,455.12, 187.36,455.12, 187.36,455.12C 187.307,455.093, 187.253,455.040, 187.227,454.987L 187.227,454.987 c-0.187-0.133-0.347-0.267-0.507-0.373l0-0.027 
			C 183.867,452.267, 181.040,449.92, 178.293,447.467C 178.133,447.333, 177.973,447.2, 177.84,447.067L 177.813,447.067 C 177.76,447.013, 177.733,446.96, 177.68,446.907L 177.653,446.907 
			c-0.107-0.080-0.187-0.16-0.293-0.267L 177.333,446.64 C 177.307,446.587, 177.253,446.533, 177.227,446.507c0-0.027-0.027-0.027-0.027-0.027
			C 177.147,446.427, 177.12,446.4, 177.067,446.373l0-0.027 C 177.013,446.347, 176.96,446.293, 176.907,446.24c0,0-0.027,0-0.027-0.027L 176.773,446.107
			C 176.747,446.080, 176.747,446.080, 176.747,446.080C 176.693,446.027, 176.64,446, 176.64,446C 176.587,445.947, 176.587,445.947, 176.587,445.947
			C 176.533,445.893, 176.48,445.867, 176.427,445.813c0,0,0,0-0.027-0.027L 176.293,445.68C 176.267,445.653, 176.267,445.653, 176.267,445.653
			C 176.213,445.6, 176.187,445.573, 176.133,445.547c0-0.027-0.027-0.027-0.027-0.027L 176,445.387c0,0-0.027-0.027-0.053-0.053
			S 175.893,445.28, 175.84,445.253c0,0-0.053-0.053-0.053-0.080c0,0-0.053-0.027-0.080-0.053S 175.653,445.093, 175.627,445.093
			c0,0-0.027-0.053-0.053-0.080C 175.52,444.987, 175.493,444.933, 175.467,444.933C 175.44,444.88, 175.413,444.88, 175.36,444.827
			c0,0-0.027-0.053-0.053-0.053L 175.253,444.72C 175.2,444.693, 175.173,444.667, 175.147,444.64c0-0.027-0.027-0.027-0.027-0.027L 174.827,444.293L 174.8,444.293 
			C 174.773,444.24, 174.747,444.213, 174.693,444.187c0,0,0,0-0.027-0.027S 174.613,444.133, 174.613,444.133l 18.187-19.52
			C 198.453,429.867, 204.533,434.88, 210.8,439.413L 195.173,461.013C 193.28,459.68, 191.413,458.267, 189.547,456.827z M 142.8,346.907L 117.493,355.307
			c-1.6-4.827-3.013-9.68-4.267-14.64c-0.053-0.24-0.107-0.453-0.16-0.64L 113.040,340.027 c0-0.053-0.027-0.107-0.027-0.16l-0.16-0.613
			c-0.027-0.053-0.027-0.107-0.053-0.16c0,0,0,0,0-0.027c-0.053-0.213-0.107-0.4-0.16-0.587l0-0.053 
			c0-0.053-0.027-0.107-0.027-0.107l0-0.053 c-0.053-0.16-0.080-0.32-0.133-0.48c0-0.053-0.027-0.107-0.027-0.16
			c-0.027-0.053-0.027-0.107-0.053-0.16l0-0.027 c-0.027-0.133-0.080-0.293-0.107-0.453c0,0,0,0,0-0.027
			c-0.027-0.053-0.027-0.080-0.027-0.133c0-0.027,0-0.053-0.027-0.053c0-0.053-0.027-0.107-0.027-0.133l0-0.027 
			c-0.027-0.16-0.080-0.293-0.107-0.453c0-0.027,0-0.027,0-0.027c-0.027-0.053-0.027-0.107-0.053-0.16
			c-0.053-0.213-0.080-0.427-0.133-0.613l0-0.027 c-0.027-0.053-0.027-0.080-0.053-0.133l0-0.053 c-0.053-0.213-0.080-0.427-0.133-0.587
			l0-0.027 C 111.733,334.507, 111.733,334.453, 111.707,334.4c-0.027-0.16-0.053-0.32-0.107-0.48c0-0.053-0.027-0.107-0.027-0.16
			c0,0,0-0.027,0-0.053c-0.027-0.027-0.027-0.080-0.027-0.133l-0.027-0.027c-0.027-0.213-0.080-0.427-0.133-0.613
			s-0.080-0.427-0.133-0.64c-0.027-0.053-0.027-0.107-0.027-0.16c-0.187-0.853-0.373-1.733-0.56-2.587l 26.16-5.173
			C 138.373,331.973, 140.373,339.573, 142.8,346.907z M 320,474.667c 2.133,0, 4.24-0.053, 6.347-0.107l 0.88,26.667C 325.44,501.28, 323.653,501.307, 321.813,501.333
			l-0.027,0 c-0.053,0-0.133,0-0.133,0l-0.533,0 c0,0,0,0-0.027,0l-0.187,0 c-0.027,0-0.027,0-0.027,0l-0.453,0 c0,0-0.027,0-0.053,0L 320.267,501.333 
			c0,0-0.027,0-0.053,0l-0.427,0 c0,0-0.027,0-0.053,0l-0.213,0 c0,0-0.080,0-0.133,0c0,0-0.027,0-0.053,0L 319.2,501.333 c0,0-0.027,0-0.053,0
			l-0.187,0 C 318.933,501.333, 318.933,501.333, 318.933,501.333l-1.44,0 c0,0-0.027,0-0.053,0l-0.187,0 c-0.080,0-0.133,0-0.213-0.027l-0.213,0 c0,0-0.027,0-0.053,0
			l-0.133,0 c-0.027,0-0.053,0-0.053,0l-0.16,0 c-0.027,0-0.027,0-0.027,0c-0.16,0-0.293-0.027-0.427-0.027c-0.027,0-0.027,0-0.027,0
			l-0.187,0 c-0.027,0-0.027,0-0.027,0l-0.827,0 c0,0,0,0-0.027,0l-0.187,0 c-0.213,0-0.427-0.027-0.613-0.027c-0.080,0-0.16,0-0.213-0.027
			l-1.067,0 c-5.92-0.213-11.787-0.64-17.6-1.307c-0.187-0.053-0.4-0.053-0.587-0.107L 294.4,499.813 c-0.053,0-0.107-0.027-0.107-0.027
			c-0.053,0-0.080,0-0.107-0.027l-0.133,0 c-0.027,0-0.027,0-0.027,0c-0.080,0-0.16-0.027-0.213-0.027
			c-0.027,0-0.053-0.027-0.080-0.027l-0.213,0 l-0.080-0.027l-0.080,0 l 3.307-26.453C 304.373,474.187, 312.213,474.667, 320,474.667z M 116.4,224.133l0-0.053 
			c 0.027-0.107, 0.080-0.24, 0.107-0.373c 0.027-0.080, 0.053-0.133, 0.053-0.213l 0.027,0 c 2.64-8.32, 5.76-16.427, 9.36-24.267l 24.24,11.093
			c-3.227,7.067-6.027,14.373-8.32,21.76L 116.4,224.133z M 524.667,348.427c-2.107,7.2-4.613,14.267-7.467,21.12L 517.2,369.573 
			c-0.027,0.053-0.027,0.080-0.027,0.080l-0.027,0.080c-0.053,0.133-0.133,0.267-0.187,0.427L 516.96,370.16 
			c-0.027,0.027-0.053,0.080-0.053,0.133l-0.027,0.027c-0.027,0.027-0.027,0.080-0.053,0.133c0,0,0,0.027-0.027,0.053
			c-0.027,0.053-0.053,0.107-0.080,0.187c0,0.027-0.027,0.053-0.027,0.080c0,0-0.027,0.053-0.027,0.080
			c-0.027,0.027-0.027,0.080-0.027,0.080c-0.027,0.053-0.053,0.053-0.053,0.107c-0.027,0.027-0.027,0.053-0.053,0.107l-0.107,0.213
			c0,0.027,0,0.053,0,0.053c-0.027,0.053-0.053,0.107-0.080,0.133c0,0,0,0.027,0,0.080c-0.027,0.027-0.053,0.053-0.053,0.107
			c-0.027,0-0.027,0.053-0.027,0.053l-0.080,0.16L 516.187,371.92 c-0.027,0.053-0.053,0.133-0.080,0.187l-0.027,0.027
			c0,0.027-0.027,0.080-0.053,0.133c0,0.053,0,0.053,0,0.053c-0.053,0.053-0.053,0.107-0.080,0.16l-0.027,0.027l-0.24,0.56
			c-0.053,0.16-0.107,0.267-0.16,0.4l-24.453-10.693c 3.12-7.093, 5.813-14.427, 8-21.867L 524.667,348.427z M 502.507,248.533
			c-1.653-7.573-3.787-15.12-6.32-22.427l 25.147-8.827c 0.56,1.573, 1.093,3.173, 1.627,4.8l 0.693,2.187
			c 1.893,6.107, 3.547,12.32, 4.933,18.64L 502.507,248.533z M 445.573,460.48C 445.573,460.48, 445.573,460.507, 445.573,460.48
			c-0.133,0.107-0.24,0.187-0.373,0.293l-0.053,0 C 445.12,460.8, 445.093,460.8, 445.067,460.827s-0.053,0.027-0.053,0.027
			c-0.027,0.053-0.080,0.053-0.080,0.053c-0.053,0.053-0.107,0.107-0.107,0.107C 444.8,461.067, 444.773,461.067, 444.747,461.067
			c-0.027,0.053-0.053,0.053-0.107,0.080c0,0.027-0.027,0.027-0.053,0.053s-0.080,0.027-0.107,0.080c0,0-0.027,0-0.053,0.027
			C 444.373,461.333, 444.32,461.387, 444.267,461.413s-0.107,0.080-0.16,0.133l-0.027,0 c-0.053,0.053-0.080,0.080-0.133,0.107l-0.027,0.027
			c-4.987,3.547-10.080,6.907-15.36,10l-13.573-22.933c 6.64-3.947, 13.147-8.347, 19.28-13.12l 16.347,21.093
			c-1.627,1.253-3.253,2.48-4.933,3.707C 445.653,460.427, 445.627,460.453, 445.573,460.48z M 270.773,388.053c0,0-39.573-158.533-27.92-201.147
			c 11.627-42.64, 55.627-67.707, 98.267-56.053c 42.64,11.627, 67.733,55.627, 56.080,98.267C 385.52,271.733, 270.773,388.053, 270.773,388.053z
			 M 334.053,156.56c-28.373-7.787-57.707,8.96-65.467,37.36s 8.907,57.733, 37.36,65.52c 28.4,7.76, 57.733-8.96, 65.493-37.387
			C 379.227,193.68, 362.507,164.347, 334.053,156.56z"  />
<glyph unicode="&#xe050;" d="M 306.667,234.667c 22,0, 40,24, 40,53.333L 346.667,501.333 c0,29.333-18,53.333-40,53.333S 266.667,530.667, 266.667,501.333l0-213.333 C 266.667,258.667, 284.667,234.667, 306.667,234.667z M 400,482.987l0-58.507 
			c 63.333-33.573, 106.667-99.947, 106.667-176.48c0-110.293-89.707-200-200-200S 106.667,137.707, 106.667,248c0,76.533, 43.333,142.907, 106.667,176.48L 213.333,482.987 
			C 119.787,445.76, 53.333,354.667, 53.333,248c0-139.68, 113.653-253.333, 253.333-253.333s 253.333,113.653, 253.333,253.333C 560,354.667, 493.547,445.76, 400,482.987z"  />
<glyph unicode="&#xe051;" d="M 306.667,528C 166.987,528, 53.333,414.347, 53.333,274.667S 166.987,21.333, 306.667,21.333s 253.333,113.653, 253.333,253.333S 446.347,528, 306.667,528z M 106.667,274.667C 106.667,384.96, 196.373,474.667, 306.667,474.667
	c 40.693,0, 78.56-12.293, 110.187-33.253L 139.92,164.48C 118.96,196.107, 106.667,233.973, 106.667,274.667z M 306.667,74.667c-40.693,0-78.56,12.293-110.187,33.253
	L 473.413,384.853C 494.373,353.227, 506.667,315.36, 506.667,274.667C 506.667,164.373, 416.96,74.667, 306.667,74.667z"  />
<glyph unicode="&#xe052;" d="M 506.667,368L 506.667,448 c0,53.333-53.333,133.333-186.667,133.333S 133.333,501.333, 133.333,448l0-80 L 80,368 l0-293.333 c0-44.107, 35.893-80, 80-80l 320,0 c 44.107,0, 80,35.893, 80,80L 560,368 L 506.667,368 z M 186.667,474.667c0,0, 26.667,53.333, 133.333,53.333s 133.333-53.333, 133.333-53.333l0-106.667 L 186.667,368 L 186.667,474.667 z
	 M 506.667,74.667c0-14.693-11.947-26.667-26.667-26.667L 160,48 c-14.72,0-26.667,11.973-26.667,26.667l0,240 l 373.333,0 L 506.667,74.667 zM 293.333,162.053L 293.333,101.333 l 53.333,0 l0,60.72 c 15.893,9.253, 26.667,26.24, 26.667,45.947c0,29.44-23.893,53.333-53.333,53.333s-53.333-23.893-53.333-53.333C 266.667,188.32, 277.44,171.307, 293.333,162.053z"  />
<glyph unicode="&#xe053;" d="M 506.667,608c-106.667,0-133.333-80-133.333-133.333l0-133.333 L0,341.333 l0-293.333 c0-44.107, 35.893-80, 80-80l 320,0 c 44.107,0, 80,35.893, 80,80L 480,341.333 l-53.333,0 L 426.667,501.333 c0,0,0,53.333, 80,53.333s 80-53.333, 80-53.333l0-106.667 l 53.333,0 L 640,474.667 C 640,528, 613.333,608, 506.667,608z
	 M 426.667,48c0-14.693-11.947-26.667-26.667-26.667L 80,21.333 c-14.72,0-26.667,11.973-26.667,26.667l0,240 l 373.333,0 L 426.667,48 zM 213.333,135.387L 213.333,74.667 l 53.333,0 l0,60.72 c 15.893,9.253, 26.667,26.24, 26.667,45.947c0,29.44-23.893,53.333-53.333,53.333s-53.333-23.893-53.333-53.333C 186.667,161.653, 197.44,144.64, 213.333,135.387z"  />
<glyph unicode="&#xe054;" d="M 293.333,135.387L 293.333,74.667 l 53.333,0 l0,60.72 c 15.893,9.253, 26.667,26.24, 26.667,45.947c0,29.44-23.893,53.333-53.333,53.333s-53.333-23.893-53.333-53.333C 266.667,161.653, 277.44,144.64, 293.333,135.387zM 506.667,341.333L 506.667,448 c0,53.333-53.333,133.333-186.667,133.333S 133.333,501.333, 133.333,448l0-186.667 l 53.333,0 L 186.667,474.667 c0,0, 26.667,53.333, 133.333,53.333s 133.333-53.333, 133.333-53.333l0-133.333 L 240,341.333 l0-53.333 l 266.667,0 l0-240 c0-14.693-11.947-26.667-26.667-26.667L 160,21.333 c-14.72,0-26.667,11.973-26.667,26.667l0,155.093 L 133.333,208 
	L 106.667,208 L 80,208 l0-160 c0-44.107, 35.893-80, 80-80l 320,0 c 44.107,0, 80,35.893, 80,80L 560,341.333 L 506.667,341.333 z"  />
<glyph unicode="&#xe055;" d="M 400,224.987c0,0-164.853,0-226.667-144.267c0,0, 103.227-41.2, 226.667-41.2s 226.667,41.2, 226.667,41.2C 564.853,224.987, 400,224.987, 400,224.987z
			 M 400,245.547c 61.813,0, 103.013,61.813, 103.013,164.88S 400,513.467, 400,513.467s-103.013,0-103.013-103.040S 338.187,245.547, 400,245.547z M 200,315.867
			c 20.32,0, 37.76,8.427, 51.6,23.6C 246.48,360.187, 243.653,383.867, 243.653,410.427c0,39.6, 15.227,63.893, 33.973,78.88
			C 257.2,536.373, 200,536.48, 200,536.48s-84.853,0-84.853-84.853C 115.147,366.773, 149.093,315.867, 200,315.867z M 280,249.36l-2.88,33.547
			C 235.573,298.8, 200,298.907, 200,298.907s-135.76,0-186.667-118.8c0,0, 65.627-26.16, 150.533-32.533C 237.813,224.987, 280,249.36, 280,249.36z"  />
<glyph unicode="&#xe056;" d="M 320,208c0,0-213.333,0-293.333-186.667c0,0, 133.6-53.333, 293.333-53.333s 293.333,53.333, 293.333,53.333C 533.333,208, 320,208, 320,208z M 320,234.667c 80,0, 133.333,80, 133.333,213.333s-133.333,133.333-133.333,133.333S 186.667,581.333, 186.667,448S 240,234.667, 320,234.667z"  />
<glyph unicode="&#xe057;" d="M 629.013,75.733c-38.907,89.573-129.093,141.6-194.56,163.84c 40.107,32.773, 63.787,94.587, 63.787,175.547c0,107.6-89.947,136.053-137.52,136.053
	c-7.653,0-16.453-0.853-25.733-2.533C 309.44,571.6, 275.653,581.333, 248.773,581.333C 199.067,581.333, 125.12,548.747, 125.12,459.013c0-71.413, 20.853-126.107, 56.24-155.547
	c-55.68-14.56-131.52-50.507-170.373-139.973L0,138.187l 25.68-10.133c 2.293-0.907, 33.867-13.013, 81.653-23.707
	c-5.467-9.28-10.613-18.64-14.96-28.613l-11.013-25.307l 25.68-10.133C 111.787,38.453, 224.4-5.333, 360.693-5.333s 248.907,43.787, 253.653,45.627L 640,50.427
	L 629.013,75.733z M 444.907,415.093c0-91.493-32.267-148.32-84.187-148.32s-84.187,56.827-84.187,148.32c0,77.867, 70.267,82.56, 84.053,82.72
	C 374.64,497.653, 444.907,492.96, 444.907,415.093z M 248.773,528C 251.467,528, 262.133,527.547, 274.32,523.6c-28.533-20.533-51.12-54.56-51.12-108.507
	c0-29.307, 3.173-56.053, 9.013-79.893C 192.96,347.707, 178.453,404.933, 178.453,459.013C 178.453,523.84, 237.173,527.867, 248.773,528z M 248.773,260.107
	c 0.32,0, 7.733-0.16, 19.36-1.653c 11.627-14.347, 25.307-25.44, 40.72-33.040c-41.973-8.4-101.76-28.453-150.24-76.4
	c-34.933,5.627-64.853,13.173-84.933,19.2C 130.933,258.347, 243.653,260.080, 248.773,260.107z M 360.693,48c-87.36,0-175.12,20-215.227,32.373
	c 6.32,18.32, 26.293,42.533, 33.227,50.853c 74.48,72.133, 180.907,73.653, 181.92,73.653c 0.213,0, 19.44-0.293, 46.8-5.76
	c 47.52-12, 121.333-55.867, 159.307-118.693C 526.64,68.053, 448.187,48, 360.693,48z"  />
<glyph unicode="&#xe058;" d="M 631.36,74.933c-44.72,106.88-131.040,156.613-197.947,179.707c 29.867,40.987, 46.213,101.12, 46.853,174.667
	c 1.093,124.16-101.28,157.893-155.547,158.347c-54.293,0.48-157.227-31.467-158.347-155.627c-0.64-73.52, 14.667-133.893, 43.787-175.44
	c-67.28-21.867-154.533-70.187-201.067-176.213l-11.013-25.013l 25.307-10.4c 5.52-2.213, 136.693-55.2, 296.053-56.587
	c 159.387-1.413, 291.467,49.253, 297.040,51.387l 25.467,9.92L 631.36,74.933z M 324.080,534.32c 10.64-0.213, 103.733-4.747, 102.853-104.56
	c-0.693-79.893-22.427-140.64-59.52-166.693l-45.893-32.213l-45.227,32.987c-36.667,26.72-57.307,87.84-56.587,167.733
	C 220.587,531.413, 313.76,534.293, 324.080,534.32z M 319.92,41.68c-107.893,0.933-203.947,27.92-249.093,42.853c 48.8,85.467, 131.493,118.853, 194.987,131.653
	l 55.707,11.227l 55.493-12.16c 63.28-13.947, 145.387-48.773, 192.72-135.040C 524.427,66.027, 428.133,40.72, 319.92,41.68z"  />
<glyph unicode="&#xe059;" d="M 206.4,154.667L 533.333,48L 533.333,528 L 206.4,421.333L 106.667,421.333 c-44.107,0-80-35.893-80-80l0-106.667 c0-44.107, 35.893-80, 80-80l 11.387,0 c-0.027-0.667-0.080-1.253-0.080-1.92
		c-0.027-17.040, 1.733-40.373, 9.76-64.267c 4.32-11.813, 9.707-23.867, 17.093-34.48c 3.68-5.307, 7.227-10.56, 11.6-14.907
		c 4.187-4.48, 8.027-9.013, 12.4-12.24c 8.32-7.227, 16.053-12.347, 21.76-15.253c 5.707-3.173, 8.933-5.040, 8.933-5.040l 0.987-0.56
		c 5.013-2.773, 10.64-4.64, 16.72-5.307c 24.533-2.773, 46.64,14.907, 49.387,39.44s-14.933,46.613-39.44,49.44c0,0-1.547,0.107-4.187,0.427
		c-2.907,0-6.773,0.613-11.387,2.027c-2.587,0.373-4.8,1.76-7.547,2.8c-2.853,0.933-5.44,2.8-8.373,4.64
		c-5.893,3.6-11.627,9.12-17.307,15.36C 168.32,126.64, 160.427,141.813, 155.227,154.667L 160,154.667 L 206.4,154.667 z M 453.333,455.44l 26.667,8.907l0-352.72 l-26.667,8.080L 453.333,455.44 z
		 M 240,384.053l 186.667,62.453L 426.667,127.733 l-186.667,64.213L 240,384.053 z M 106.667,208c-14.72,0-26.667,11.973-26.667,26.667l0,106.667 c0,14.693, 11.947,26.667, 26.667,26.667l 106.667,0 l0-160 L 106.667,208 zM 560,368L 586.667,368L 586.667,208L 560,208z"  />
<glyph unicode="&#xe05a;" d="M 533.333,181.333c-32,0-60.427-14.453-80-36.853L 258.027,242.133C 263.333,256.48, 266.667,271.813, 266.667,288s-3.333,31.52-8.64,45.867L 453.333,431.52
	C 472.907,409.12, 501.333,394.667, 533.333,394.667c 58.827,0, 106.667,47.867, 106.667,106.667s-47.84,106.667-106.667,106.667s-106.667-47.867-106.667-106.667c0-7.653, 0.88-15.093, 2.427-22.293l-199.2-99.6
	C 229.973,379.36, 230,379.253, 230.080,379.2C 205.76,404.987, 171.52,421.333, 133.333,421.333c-73.52,0-133.333-59.813-133.333-133.333s 59.813-133.333, 133.333-133.333c 38.187,0, 72.427,16.347, 96.747,42.133
	c-0.080-0.053-0.107-0.16-0.187-0.24l 199.2-99.6C 427.547,89.76, 426.667,82.32, 426.667,74.667c0-58.8, 47.84-106.667, 106.667-106.667s 106.667,47.867, 106.667,106.667S 592.16,181.333, 533.333,181.333z
	 M 533.333,554.667c 29.413,0, 53.333-23.893, 53.333-53.333s-23.92-53.333-53.333-53.333s-53.333,23.893-53.333,53.333S 503.92,554.667, 533.333,554.667z M 133.333,208c-44.107,0-80,35.893-80,80s 35.893,80, 80,80s 80-35.893, 80-80
	S 177.44,208, 133.333,208z M 533.333,21.333c-29.413,0-53.333,23.893-53.333,53.333s 23.92,53.333, 53.333,53.333s 53.333-23.893, 53.333-53.333S 562.747,21.333, 533.333,21.333z"  />
<glyph unicode="&#xe05b;" d="M0,554.667l0-373.333 l 260,0 L 213.333,101.333l 213.333,0 l-46.667,80L 640,181.333 L 640,554.667 L0,554.667 z M 586.667,234.667L 53.333,234.667 L 53.333,501.333 l 533.333,0 L 586.667,234.667 z M 453.333,74.667L 186.667,74.667 c-14.667,0-26.667-12-26.667-26.667s 12-26.667, 26.667-26.667l 266.667,0 c 14.667,0, 26.667,12, 26.667,26.667
			S 468,74.667, 453.333,74.667z"  />
<glyph unicode="&#xe05c;" d="M 426.667,528L 213.333,528 C 184,528, 160,504, 160,474.667l0-373.333 c0-29.333, 24-53.333, 53.333-53.333l 213.333,0 c 29.333,0, 53.333,24, 53.333,53.333L 480,474.667 C 480,504, 456,528, 426.667,528z M 346.667,74.667l-53.333,0 l0,53.333 l 53.333,0 L 346.667,74.667 z M 426.667,154.667L 213.333,154.667 L 213.333,474.667 l 213.333,0 L 426.667,154.667 z"  />
<glyph unicode="&#xe05d;" d="M 560,368l-186.667,0 l0-53.333 l 186.667,0 l0-213.333 l-186.667,0 c0-29.333-26.667-53.333-26.667-53.333l 213.333,0 c 29.333,0, 53.333,24, 53.333,53.333l0,213.333 C 613.333,344, 589.333,368, 560,368z M 266.667,528L 53.333,528 C 24,528,0,504,0,474.667l0-373.333 c0-29.333, 24-53.333, 53.333-53.333l 213.333,0 
			c 29.333,0, 53.333,24, 53.333,53.333L 320,474.667 C 320,504, 296,528, 266.667,528z M 186.667,74.667L 133.333,74.667 l0,53.333 l 53.333,0 L 186.667,74.667 z M 266.667,154.667L 53.333,154.667 L 53.333,474.667 l 213.333,0 L 266.667,154.667 z"  />
<glyph unicode="&#xe05e;" d="M 53.333,474.667l 213.333,0 l0-53.333 l 53.333,0 L 320,474.667 c0,29.333-24,53.333-53.333,53.333L 53.333,528 C 24,528,0,504,0,474.667l0-373.333 c0-29.333, 20.293-53.333, 49.6-53.333L 80,48 l0,106.667 L 53.333,154.667 L 53.333,474.667 z M 560,368L 186.667,368 c-29.333,0-53.333-24-53.333-53.333l0-213.333 
			c0-29.333, 24-53.333, 53.333-53.333l 373.333,0 c 29.333,0, 53.333,24, 53.333,53.333l0,213.333 C 613.333,344, 589.333,368, 560,368z M 213.333,181.333L 160,181.333 l0,53.333 l 53.333,0 L 213.333,181.333 z M 560,101.333L 240,101.333 l0,213.333 l 320,0 L 560,101.333 z"  />
<glyph unicode="&#xe05f;" d="M 506.667,581.333L 133.333,581.333 C 104,581.333, 80,557.333, 80,528l0-480 c0-29.333, 24-53.333, 53.333-53.333l 373.333,0 c 29.333,0, 53.333,24, 53.333,53.333L 560,528 C 560,557.333, 536,581.333, 506.667,581.333z M 346.667,21.333l-53.333,0 l0,53.333 l 53.333,0 L 346.667,21.333 z M 506.667,101.333L 133.333,101.333 L 133.333,528 l 373.333,0 L 506.667,101.333 
	z"  />
<glyph unicode="&#xe060;" d="M 613.333,101.333L 613.333,474.667 c0,29.333-24,53.333-53.333,53.333L 80,528 C 50.667,528, 26.667,504, 26.667,474.667l0-373.333 c0-29.333, 24-53.333, 53.333-53.333l 480,0 C 589.333,48, 613.333,72, 613.333,101.333z M 53.333,261.333l0,53.333 l 53.333,0 l0-53.333 L 53.333,261.333 z M 133.333,101.333L 133.333,474.667 l 426.667,0 l0-373.333 L 133.333,101.333 
	z"  />
<glyph unicode="&#xe061;" d="M 80,448l 480,0 l0-266.667 l 53.333,0 L 613.333,501.333 L 26.667,501.333 l0-320 l 53.333,0 L 80,448 z M 426.667,154.667c-5.12-10.72-30.533-19.333-53.333-23.627L 373.333,128 l-106.667,0 l0,3.040 C 243.867,135.333, 218.453,143.947, 213.333,154.667L0,154.667 l0-26.667 
			c0-29.333, 80-53.333, 80-53.333l 480,0 c0,0, 80,24, 80,53.333l0,26.667 L 426.667,154.667 z M 533.333,101.333l-26.667,0 l0,26.667 l 26.667,0 L 533.333,101.333 z"  />
<glyph unicode="&#xe062;" d="M 333.307,368C 267.040,368, 213.333,314.267, 213.333,248s 53.707-120, 119.973-120c 66.24,0, 119.973,53.733, 119.973,120S 399.547,368, 333.307,368z M 286.853,328.453
	C 300.56,336.427, 316.32,341.333, 333.333,341.333c 47.76,0, 86.827-36.213, 92.24-82.587C 379.44,294.267, 324.907,316.187, 286.853,328.453zM 600,474.667l-128.907,0 L 453.333,528L 186.667,528 L 168.907,474.667L 66.667,474.667 C 37.227,474.667,0,450.773,0,421.333l0-320 c0-29.44, 37.227-53.333, 66.667-53.333l 533.333,0 c 29.44,0, 40,23.893, 40,53.333L 640,421.333 
	C 640,450.773, 629.44,474.667, 600,474.667z M 333.333,74.667C 237.6,74.667, 160,152.267, 160,248S 237.6,421.333, 333.333,421.333S 506.667,343.733, 506.667,248S 429.067,74.667, 333.333,74.667z M 586.667,368l-53.333,0 L 533.333,421.333 l 53.333,0 L 586.667,368 z"  />
<glyph unicode="&#xe063;" d="M 560,528L 80,528 C 35.893,528,0,492.107,0,448l0-293.333 c0-44.107, 35.893-80, 80-80l 26.667,0 l 26.667-53.333l 26.667,0 l 26.667,53.333l 266.667,0 l 26.667-53.333l 26.667,0 l 26.667,53.333l 26.667,0 c 44.107,0, 80,35.893, 80,80L 640,448 
		C 640,492.107, 604.107,528, 560,528z M 586.667,154.667c0-14.72-11.973-26.667-26.667-26.667L 80,128 c-14.693,0-26.667,11.947-26.667,26.667L 53.333,448 c0,14.693, 11.973,26.667, 26.667,26.667l 480,0 c 14.693,0, 26.667-11.973, 26.667-26.667L 586.667,154.667 zM 80,154.667l 400,0 L 480,448 L 80,448 L 80,154.667 z M 106.667,421.333l 346.667,0 l0-240 L 106.667,181.333 L 106.667,421.333 zM 506.667,421.333L 533.333,421.333L 533.333,394.667L 506.667,394.667zM 533.333,394.667L 560,394.667L 560,368L 533.333,368zM 506.667,368L 533.333,368L 533.333,341.333L 506.667,341.333zM 533.333,341.333L 560,341.333L 560,314.667L 533.333,314.667zM 506.667,261.333L 560,261.333L 560,234.667L 506.667,234.667zM 506.667,208L 560,208L 560,181.333L 506.667,181.333z"  />
<glyph unicode="&#xe064;" d="M 586.667,421.333l-53.333,0 L 533.333,437.067 C 533.333,466.427, 509.44,501.333, 480,501.333L 53.333,501.333 C 23.893,501.333,0,466.427,0,437.067l0-240 C0,167.627, 23.893,154.667, 53.333,154.667l 26.667,0 l0-64.267 C 80,60.96, 103.893,48, 133.333,48
			l 453.333,0 c 29.44,0, 53.333,12.96, 53.333,42.4l0,266.667 C 640,386.427, 616.107,421.333, 586.667,421.333z M 80,208L 53.333,208 l0,106.667 l 26.667,0 L 80,208 z M 87.413,394.667L 53.333,394.667 L 53.333,448 l 426.667,0 l0-26.667 L 133.333,421.333 C 113.707,421.333, 96.667,394.667, 87.413,394.667z M 133.333,101.333L 133.333,368 
			l 453.333,0 l 0.053-266.667L 133.333,101.333 z M 426.667,181.333l 133.333,0 l0,106.667 l-133.333,0 L 426.667,181.333 z M 453.333,261.333l 80,0 l0-53.333 l-80,0 L 453.333,261.333 z M 213.333,128l 106.667,0 l0,26.667 L 213.333,154.667 L 213.333,128 z M 160,288l 186.667,0 l0,53.333 L 160,341.333 L 160,288 z M 346.72,128l 26.56,0 l0,26.667 l-26.56,0 L 346.72,128 z M 160,128
			l 26.56,0 l0,26.667 L 160,154.667 L 160,128 z"  />
<glyph unicode="&#xe065;" d="M 106.667,181.333l 80,0 l0,80 L 106.667,261.333 L 106.667,181.333 z M 133.333,234.667l 26.667,0 l0-26.667 L 133.333,208 L 133.333,234.667 z M 213.333,181.333l 80,0 l0,80 L 213.333,261.333 L 213.333,181.333 z M 240,234.667l 26.667,0 l0-26.667 L 240,208 L 240,234.667 z M 213.333,74.667l 80,0 l0,80 
			L 213.333,154.667 L 213.333,74.667 z M 240,128l 26.667,0 l0-26.667 L 240,101.333 L 240,128 z M 106.667,74.667l 80,0 l0,80 L 106.667,154.667 L 106.667,74.667 z M 133.333,128l 26.667,0 l0-26.667 L 133.333,101.333 L 133.333,128 z M 320,181.333l 80,0 l0,80 l-80,0 L 320,181.333 z M 346.667,234.667l 26.667,0 l0-26.667 l-26.667,0 L 346.667,234.667 z M 266.667,341.333l 26.667,0 L 293.333,368 l-26.667,0 L 266.667,341.333 z M 213.333,341.333l 26.667,0 L 240,368 L 213.333,368 L 213.333,341.333 
			z M 106.667,288l 426.667,0 L 533.333,528 L 106.667,528 L 106.667,288 z M 133.333,501.333l 373.333,0 l0-186.667 L 133.333,314.667 L 133.333,501.333 z M 533.333,608L 106.667,608 C 62.48,608, 26.667,572.187, 26.667,528l0-480 c0-44.187, 35.813-80, 80-80l 426.667,0 c 44.187,0, 80,35.813, 80,80L 613.333,528 
			C 613.333,572.187, 577.52,608, 533.333,608z M 560,48c0-14.747-11.92-26.667-26.667-26.667L 106.667,21.333 c-14.747,0-26.667,11.92-26.667,26.667L 80,528 c0,14.747, 11.92,26.667, 26.667,26.667l 426.667,0 c 14.747,0, 26.667-11.92, 26.667-26.667L 560,48 z
			 M 320,74.667l 80,0 l0,80 l-80,0 L 320,74.667 z M 346.667,128l 26.667,0 l0-26.667 l-26.667,0 L 346.667,128 z M 426.667,74.667l 106.667,0 l0,186.667 l-106.667,0 L 426.667,74.667 z M 453.333,234.667l 53.333,0 l0-133.333 l-53.333,0 L 453.333,234.667 z M 160,341.333l 26.667,0 L 186.667,368 L 160,368 L 160,341.333 z"  />
<glyph unicode="&#xe066;" d="M 480,421.333L 480,501.44 L 400,581.333L 240,581.333 L 160,501.44L 160,421.333 L 80,421.333 l0-453.333 l 480,0 L 560,421.333 L 480,421.333 z M 240,528l 160,0 l 26.667-26.667L 213.333,501.333 L 240,528z M 426.667,474.667l0-53.333 l-26.667,0 L 400,474.667 L 426.667,474.667 z M 373.333,474.667l0-53.333 l-106.667,0 L 266.667,474.667 L 373.333,474.667 z M 213.333,474.667l 26.667,0 l0-53.333 L 213.333,421.333 L 213.333,474.667 z M 506.667,21.333L 133.333,21.333 L 133.333,368 
	l 373.333,0 L 506.667,21.333 z"  />
<glyph unicode="&#xe067;" d="M 464.213,555.547L 175.787,555.547 L0,381.333l 320-360.88L 640,381.333L 464.213,555.547z M 575.84,367.253L 575.467,368.88l-237.387,0 l 113.813,122.907L 575.84,367.253z
	 M 277.28,144.373L 90,342.213L 213.333,342.213 l-12.4-5.947L 277.28,144.373z M 227.653,342.213l 184.64,0 L 320,111.44L 227.653,342.213z M 426.667,342.213l 123.28,0 L 362.667,144.373
	l 76.347,191.893L 426.667,342.213z M 320,388.56L 215.627,502.213l 208.693,0 L 320,388.56z M 188.080,490.773l 113.813-121.893L 64.48,368.88 L 64.16,368.267L 188.080,490.773z"  />
<glyph unicode="&#xe068;" d="M 186.667,128A26.667,26.667 540 1 1 240,128A26.667,26.667 540 1 1 186.667,128zM 266.667,128A26.667,26.667 540 1 1 320,128A26.667,26.667 540 1 1 266.667,128zM 346.667,128A26.667,26.667 540 1 1 400,128A26.667,26.667 540 1 1 346.667,128zM 160,194.667A13.333,13.333 540 1 1 186.667,194.66699999999997A13.333,13.333 540 1 1 160,194.66699999999997zM 213.333,194.667A13.333,13.333 540 1 1 240,194.66699999999997A13.333,13.333 540 1 1 213.333,194.66699999999997zM 266.667,194.667A13.333,13.333 540 1 1 293.333,194.66699999999997A13.333,13.333 540 1 1 266.667,194.66699999999997zM 320,194.667A13.333,13.333 540 1 1 346.667,194.66699999999997A13.333,13.333 540 1 1 320,194.66699999999997zM 373.333,194.667A13.333,13.333 540 1 1 400,194.66699999999997A13.333,13.333 540 1 1 373.333,194.66699999999997zM 400,248A13.333,13.333 540 1 1 426.667,248A13.333,13.333 540 1 1 400,248zM 346.667,248A13.333,13.333 540 1 1 373.333,248A13.333,13.333 540 1 1 346.667,248zM 293.333,248A13.333,13.333 540 1 1 320,248A13.333,13.333 540 1 1 293.333,248zM 240,248A13.333,13.333 540 1 1 266.667,248A13.333,13.333 540 1 1 240,248zM 186.667,248A13.333,13.333 540 1 1 213.333,248A13.333,13.333 540 1 1 186.667,248zM 133.333,248A13.333,13.333 540 1 1 160,248A13.333,13.333 540 1 1 133.333,248zM 522.56,438.187l 23.867,47.707l-187.467,98.56L 293.333,421.36L 80,421.36 L 80,21.333 l 53.333,0 l0-53.333 l 266.667,0 l0,53.333 l 80,0 L 480,421.36 l-133.333,0 
		l 43.413,87.893L 522.56,438.187z M 373.333,21.333L 186.667,21.333 l0,26.667 l 186.667,0 L 373.333,21.333 z M 426.667,368.027L 426.667,248 L 426.667,74.667 L 133.333,74.667 l0,26.667 c 14.747,0, 26.667,11.92, 26.667,26.667s-11.92,26.667-26.667,26.667l0,93.333 L 133.333,368.027 L 426.667,368.027 z"  />
<glyph unicode="&#xe069;" d="M 26.667,528l0-453.333 l 240,0 l0-53.333 l 346.667,0 L 613.333,528 L 26.667,528 z M 293.333,128L 80,128 l0,26.667 l 213.333,0 L 293.333,128 z M 560,74.667l-240,0 l0,26.667 l 240,0 L 560,74.667 z M 560,448l-26.667,0 l0-26.667 l 26.667,0 l0-105.733 
			L 560,128 l-240,0 l0,160 l-26.667,0 l0-106.667 L 80,181.333 l0,134.267 l0,0.347 c 19.813,1.52, 72.613,9.653, 72.613,52.987L 80,320.533L 80,474.667 l 480,0 L 560,448 z M 552.613,315.6l-80,53.333
			C 472.613,315.6, 552.613,315.6, 552.613,315.6z M 506.667,448l-26.667,0 l0-26.667 l 26.667,0 L 506.667,448 z M 453.333,448l-26.667,0 l0-26.667 l 26.667,0 L 453.333,448 z M 400,448l-26.667,0 l0-26.667 l 26.667,0 L 400,448 z M 346.667,448l-26.667,0 l0-26.667 l 26.667,0 L 346.667,448 z M 293.333,448l-26.667,0 l0-26.667 l 26.667,0 L 293.333,448 z
			 M 240,448L 213.333,448 l0-26.667 l 26.667,0 L 240,448 z M 186.667,448L 160,448 l0-26.667 l 26.667,0 L 186.667,448 z M 133.333,448L 106.667,448 l0-26.667 l 26.667,0 L 133.333,448 z"  />
<glyph unicode="&#xe06a;" d="M 293.333,394.667L 106.667,394.667 l0-213.333 l 186.667,0 L 293.333,394.667 z M 266.667,221.307c0,22.080-29.84,39.973-66.667,39.973S 133.333,243.387, 133.333,221.307L 133.333,368 l 133.333,0 L 266.667,221.307 zM 160,301.28A40,40 540 1 1 240,301.28A40,40 540 1 1 160,301.28zM 584.773,501.333l-533.333,0 C 21.973,501.333,0,479.813,0,450.4l0-320 C0,100.907, 21.973,74.667, 51.44,74.667l 533.333,0 C 614.213,74.667, 640,100.907, 640,130.4l0,320 
		C 640,479.813, 614.213,501.333, 584.773,501.333z M 586.667,128L 53.333,128 L 53.333,448 l 533.333,0 L 586.667,128 zM 346.667,394.667L 533.333,394.667L 533.333,341.333L 346.667,341.333zM 346.667,314.667L 533.333,314.667L 533.333,288L 346.667,288zM 346.667,261.333L 533.333,261.333L 533.333,234.667L 346.667,234.667zM 346.667,208L 426.667,208L 426.667,181.333L 346.667,181.333zM 453.28,208L 480,208L 480,181.28L 453.28,181.28z"  />
<glyph unicode="&#xe06b;" d="M 639.627,288l-70.88,81.627l 9.84,108.053L 473.733,501.6l-54.96,93.387L 320,551.973L 221.173,594.987L 166.267,501.6L 61.387,477.653L 71.2,369.627
			L 0.373,288l 70.827-81.627l-9.813-108.080l 104.907-23.893l 54.96-93.387L 320,23.973l 98.773-42.933l 54.907,93.333l 104.933,23.893l-9.84,108.133L 639.627,288z
			 M 440.507,120.453l-43.013-73.173L 320,80.933l-77.467-33.68l-43.067,73.173l-82.293,18.827l 7.707,84.693L 69.28,288l 55.6,63.973L 117.173,436.72
			l 82.347,18.827l 42.96,73.12L 320,495.013l 77.467,33.68l 43.013-73.12l 82.293-18.827l-7.707-84.693L 570.667,288l-55.6-64.027l 7.707-84.747
			L 440.507,120.453z M 320,458.107c-92.907,0-168.507-76.32-168.507-170.107c0-93.813, 75.6-170.107, 168.507-170.107s 168.507,76.293, 168.507,170.107
			C 488.507,381.787, 412.907,458.107, 320,458.107z M 320,144.080c-78.613,0-142.587,64.56-142.587,143.92S 241.387,431.92, 320,431.92
			c 78.587,0, 142.587-64.56, 142.587-143.92S 398.587,144.080, 320,144.080z"  />
<glyph unicode="&#xe06c;" d="M 533.333,394.667L 533.333,474.667 L0,474.667 l0-320 l 80,0 l0-80 l 533.333,0 L 613.333,394.667 L 533.333,394.667 z M 80,208L 53.333,208 L 53.333,421.333 l 426.667,0 l0-26.667 L 80,394.667 L 80,208 z M 560,128L 133.333,128 l0,213.333 l 426.667,0 L 560,128 zM 160,314.667l0-160 l 373.333,0 l0,160 L 160,314.667 z M 186.667,181.333l0,106.667 l 87.493,0 c-4.613-7.867-7.44-16.933-7.44-26.667l0-53.333 c0-9.733, 2.827-18.773, 7.467-26.667L 186.667,181.333 z M 400,221.333
		c0-22.080-17.92-40-40-40l-26.667,0 c-22.080,0-40,17.92-40,40l0,26.667 c0,22.080, 17.92,40, 40,40l 26.667,0 c 22.080,0, 40-17.92, 40-40L 400,221.333 z M 506.667,181.333
		l-87.387,0 c 4.613,7.893, 7.44,16.933, 7.44,26.667l0,53.333 c0,9.733-2.827,18.8-7.44,26.667L 506.667,288 L 506.667,181.333 z"  />
<glyph unicode="&#xe06d;" d="M 567.36,421.333L 522.933,554.667l-69.68,0 L 453.253,581.333 l-160,0 l0-26.667 L 111.173,554.667 L 66.747,421.333l 39.947,0 l 53.333-453.333l 314.053,0 l 53.333,453.333L 567.36,421.333 z M 149.627,501.333l 196.987,0 L 346.613,528 l 53.333,0 l0-26.667 l 84.587,0 l 8.907-26.667L 140.747,474.667 
	L 149.627,501.333z M 169.84,341.333l 294.507,0 l-15.68-133.333L 185.52,208 L 169.84,341.333z M 207.467,21.333l-18.827,160l 256.853,0 l-18.8-160L 207.467,21.333 z M 467.467,368L 166.667,368 L 160.4,421.333l 313.333,0 L 467.467,368z
	"  />
<glyph unicode="&#xe06e;" d="M 485.733,501.333l-84.267,0 l-42.667,53.333L 320,554.667 L 320,581.333 l-26.667,0 l0-26.667 L 265.253,554.667 L 229.68,501.333L 112.4,501.333 C 68.293,501.333, 26.667,477.227, 26.667,433.093l0-320 C 26.667,68.987, 80,21.333, 106.667,21.333l0-53.333 l 80,0 l0,53.333 l 213.333,0 l0-53.333 l 80,0 l0,53.333 
			c 53.333,0, 80,47.653, 80,91.76l0,320 C 560,477.227, 529.84,501.333, 485.733,501.333z M 279.52,528l 66.453,0 l 21.307-26.667L 261.733,501.333 L 279.52,528z M 506.667,113.093
			C 506.667,98.4, 500.427,74.667, 485.733,74.667l-373.333,0 C 97.68,74.667, 80,98.4, 80,113.093l0,320 C 80,447.813, 97.68,448, 112.4,448l 373.333,0 C 500.427,448, 506.667,447.813, 506.667,433.093L 506.667,113.093 z
			 M 106.667,181.333l 373.333,0 L 480,394.667 L 106.667,394.667 L 106.667,181.333 z M 133.333,368l 320,0 l0-160 L 133.333,208 L 133.333,368 z M 266.64,101.333l 53.28,0 l0,53.333 L 266.64,154.667 L 266.64,101.333 z" />
<glyph unicode="&#xe06f;" d="M 160,181.333l 320,0 l0,160 L 160,341.333 L 160,181.333 z M 186.667,314.667l 266.667,0 l0-106.667 L 186.667,208 L 186.667,314.667 zM 160,394.667L 480,394.667L 480,368L 160,368zM 160,154.667L 293.333,154.667L 293.333,128L 160,128zM 160,101.333L 240,101.333L 240,74.667L 160,74.667zM 267.6,99.76L 294.267,99.76L 294.267,73.093L 267.6,73.093zM 346.667,154.667L 480,154.667L 480,128L 346.667,128zM 346.667,101.333L 480,101.333L 480,74.667L 346.667,74.667zM 533.333,501.333L 533.333,526.427 C 533.333,557.333, 506.72,581.333, 440.933,581.333l-320,0 C 76.827,581.333, 53.333,543.893, 53.333,499.76l0-453.333 C 53.333,2.32, 76.827-32, 120.933-32l 373.333,0 
		C 538.373-32, 533.333-32, 586.667-32L 586.667,501.333 L 533.333,501.333 z M 533.333,21.333L 120.933,21.333 C 106.24,21.333, 106.667,31.76, 106.667,46.427l0,453.333 C 106.667,514.453, 106.24,528, 120.933,528L 480,528 l0-26.667 L 160,501.333 l0-53.333 l 373.333,0 L 533.333,21.333 z"  />
<glyph unicode="&#xe070;" d="M 560,448L 560,528 L0,528 l0-400 l 80,0 l0-80 l 560,0 L 640,448 L 560,448 z M 80,181.333L 53.333,181.333 L 53.333,474.667 l 453.333,0 l0-26.667 L 80,448 L 80,181.333 z M 586.667,101.333L 133.333,101.333 L 133.333,394.667 l 453.333,0 L 586.667,101.333 z"  />
<glyph unicode="&#xe071;" d="M 319.973,608C 185.92,608, 77.227,499.307, 77.227,365.227c0-134.107, 190.667-397.227, 242.773-397.227c 38.533,0, 242.8,263.12, 242.8,397.227
	C 562.773,499.307, 454.080,608, 319.973,608z M 318.88,245.76c-68.133,0-123.333,55.2-123.333,123.333s 55.2,123.333, 123.333,123.333s 123.333-55.2, 123.333-123.333
	S 387.013,245.76, 318.88,245.76z"  />
<glyph unicode="&#xe072;" d="M 411.147,592.507l-192.027-106.4L0,608l0-488.080 l 224.907-121.92l 181.307,106.88L 613.333-9.2L 613.333,478.027 L 411.147,592.507z M 560,281.76l-133.333,68.32L 426.667,517.493 
	l 133.333-71.413L 560,281.76 z M 240,439.893l 133.333,76.187l0-167.253 l-133.333-76.187L 240,439.893 z M 240,241.893l 133.333,76.213l0-167.307 L 240,74.667L 240,241.893 z M 186.667,439.893l0-166.267 L 53.333,353.813L 53.333,516.107 
	L 186.667,439.893z M 53.333,322.667l 133.333-80.187L 186.667,74.667 l-133.333,76.133L 53.333,322.667 z M 426.667,151.333l0,168.773 l 133.333-68.32l0-171.867 L 426.667,151.333z"  />
<glyph unicode="&#xe073;" d="M 546.293,514.24C 488.373,572.16, 408.373,608, 320,608C 231.68,608, 151.68,572.16, 93.76,514.24S0,376.32,0,288c0-88.373, 35.84-168.373, 93.76-226.293
	C 151.68,3.84, 231.68-32, 320-32c 88.373,0, 168.373,35.84, 226.293,93.707C 604.16,119.627, 640,199.627, 640,288C 640,376.32, 604.16,456.32, 546.293,514.24z
	 M 426.667,288c0-29.44-11.973-56.107-31.253-75.413C 376.107,193.307, 349.44,181.333, 320,181.333c-29.387,0-56.053,11.973-75.36,31.253
	C 225.307,231.893, 213.333,258.56, 213.333,288c0,29.387, 11.973,56.053, 31.307,75.36S 290.613,394.667, 320,394.667c 29.44,0, 56.107-11.973, 75.413-31.307
	C 414.693,344.053, 426.667,317.387, 426.667,288z M 53.333,288c0,73.493, 29.893,140.16, 78.187,188.48l 75.36-75.36C 177.92,372.16, 160,332.16, 160,288
	s 17.92-84.16, 46.88-113.12l-75.36-75.36C 83.227,147.787, 53.333,214.453, 53.333,288z M 508.48,99.52l-75.36,75.36C 462.080,203.84, 480,243.84, 480,288
	s-17.92,84.16-46.88,113.12l 75.36,75.36C 556.773,428.16, 586.667,361.493, 586.667,288C 586.667,214.453, 556.773,147.787, 508.48,99.52z"  />
<glyph unicode="&#xe074;" d="M 213.333,581.333l0-106.667 L 26.667,474.667 l0-400 l 163.653,0 l 44.933-106.667l 293.333,0 L 586.667,21.333L 586.667,581.333 L 213.333,581.333 z M 80,128L 80,348 L 167.867,128L 80,128 z M 200,154.667l-106.667,266.667l 106.667,0 L 200,154.667 z M 533.333,48l-31.44-26.667L 266.667,21.333 L 266.667,528 l 266.667,0 L 533.333,48 zM 293.333,474.667L 426.667,474.667L 426.667,448L 293.333,448zM 293.333,314.667L 426.667,314.667L 426.667,288L 293.333,288zM 293.333,261.333L 426.667,261.333L 426.667,234.667L 293.333,234.667zM 293.333,208L 426.667,208L 426.667,181.333L 293.333,181.333zM 293.333,154.667L 426.667,154.667L 426.667,128L 293.333,128zM 293.333,101.333L 426.667,101.333L 426.667,74.667L 293.333,74.667zM 453.387,474.693L 506.667,474.693L 506.667,447.973L 453.387,447.973zM 453.387,421.333L 480.027,421.333L 480.027,394.613L 453.387,394.613zM 399.947,421.333L 426.587,421.333L 426.587,394.613L 399.947,394.613zM 373.387,421.333L 373.333,421.333L 293.333,421.333L 293.333,394.667L 293.333,394.613L 373.387,394.613 	zM 480.027,314.667L 506.587,314.667L 506.587,287.947L 480.027,287.947zM 480.027,261.36L 506.587,261.36L 506.587,234.64L 480.027,234.64zM 480.027,208L 506.587,208L 506.587,181.28L 480.027,181.28zM 480.027,154.693L 506.587,154.693L 506.587,127.973L 480.027,127.973z" />
<glyph unicode="&#xe075;" d="M 580.453,368C 565.787,368, 560,344, 560,314.667l0-53.333 c0-29.333, 5.787-53.333, 20.453-53.333s 20.453,24, 20.453,53.333L 640,261.333 l0,53.333 l-39.12,0 C 600.88,344, 595.093,368, 580.453,368zM 480,448c-26.667,0-26.667-24-26.667-53.333l0-80 L 186.667,314.667 L 186.667,394.667 c0,29.333,0,53.333-26.667,53.333C 130.667,448, 106.667,424, 106.667,394.667l0-213.333 c0-29.333, 24-53.333, 53.333-53.333c 26.667,0, 26.667,24, 26.667,53.333l0,80 l 266.667,0 l0-80 c0-29.333,0-53.333, 26.667-53.333
	c 29.333,0, 53.333,24, 53.333,53.333L 533.333,394.667 C 533.333,424, 509.333,448, 480,448zM 59.547,368C 74.213,368, 80,344, 80,314.667l0-53.333 c0-29.333-5.787-53.333-20.453-53.333s-20.453,24-20.453,53.333L0,261.333 l0,53.333 l 39.12,0 C 39.12,344, 44.907,368, 59.547,368z"  />
<glyph unicode="&#xe076;" d="M 346.667,500L 346.667,528 l 13.333,0 C 367.36,528, 373.333,533.973, 373.333,541.333l0,53.333 C 373.333,602.027, 367.36,608, 360,608l-80,0 C 272.64,608, 266.667,602.027, 266.667,594.667l0-53.333 
		C 266.667,533.973, 272.64,528, 280,528L 293.333,528 l0-28.107 c-24.027-2.453-47.12-8.107-68.88-16.507L 196.533,510.347L 147.813,559.040L 54,465.227l 60.56-60.56
		C 76.32,358.533, 53.333,299.307, 53.333,234.667c0-147.28, 119.387-266.667, 266.667-266.667s 266.667,119.387, 266.667,266.667C 586.667,372.96, 481.44,486.613, 346.667,500z M 293.333,581.333l 53.333,0 l0-26.667 l-53.333,0 L 293.333,581.333 z M 91.707,465.227
		L 147.813,521.333L 178.933,490.24L 122.827,434.133L 91.707,465.227z M 320,21.333c-117.627,0-213.333,95.707-213.333,213.333s 95.707,213.333, 213.333,213.333s 213.333-95.707, 213.333-213.333S 437.627,21.333, 320,21.333zM 298.853,355.76c-10.427,10.427-27.28,10.427-37.707,0s-10.427-27.28,0-37.707l 52.373-52.4L 243.44,167.733
		c-7.227-12.827-2.693-29.093, 10.16-36.293C 257.733,129.093, 262.213,128, 266.64,128c 9.333,0, 18.373,4.907, 23.253,13.6l 80,115.573
		c 5.893,10.427, 4.080,23.467-4.373,31.92L 298.853,355.76z"  />
<glyph unicode="&#xe077;" d="M 320,368.027c-44.16,0-80-35.84-80-80s 35.84-80, 80-80s 80,35.84, 80,80S 364.16,368.027, 320,368.027z M 566.16,358.267
			c-8.667,2.8-16.48,7.253-23.173,13.147c-10.773-19.84-24.053-40.187-38.373-60.587c-22.267,28.613-47.68,57.493-76.027,85.84
			c-28.133,28.133-57.12,53.653-86.027,76.107c 68.72,48.427, 134.773,77.573, 181.787,77.573c 19.093,0, 33.707-4.933, 43.413-14.64
			c 10.56-10.56, 15.227-27.147, 14.4-48.16c 1.52,0.107, 2.933,0.48, 4.48,0.48c 7.68,0, 14.987-1.573, 21.84-3.947
			c 1.653,29.893-5.44,54.053-21.867,70.507c-14.907,14.907-35.84,22.453-62.267,22.453c-54.48,0-128.32-32.507-204.32-87.387
			C 244.027,544.533, 170.187,577.067, 115.707,577.067c-5.653,0-10.96-0.533-16.107-1.227c 7.28-7.040, 12.773-15.733, 16.267-25.467
			c 47.013-0.053, 113.013-29.2, 181.68-77.6C 268.587,450.267, 239.573,424.747, 211.467,396.613c-28-28.027-53.52-57.067-76.16-86.24
			C 112.507,342.667, 93.707,374.693, 80.24,405.12c-9.227,20.773-15.387,39.84-18.987,57.067C 58.613,461.84, 56.053,461.36, 53.333,461.36
			c-6.88,0-13.387,1.36-19.627,3.28c 3.573-21.227, 10.8-44.747, 22.16-70.347c 15.12-34.16, 36.4-70.187, 62.533-106.347
			c-26.107-36.107-47.333-72.133-62.48-106.267c-32.24-72.72-33.093-129.627-2.427-160.293c 14.907-14.907, 35.84-22.453, 62.267-22.453
			c 80.533,0, 203.36,70.827, 312.933,180.453c 28.080,28.107, 53.627,57.227, 76.24,86.48c 73.867-104.373, 95.040-193.333, 62.8-225.573
			c-9.707-9.707-24.32-14.64-43.413-14.64c-25.147,0-55.867,8.48-89.44,23.653c-3.547-8.533-8.8-16.107-15.333-22.453
			c 38.88-18, 74.773-27.867, 104.773-27.867c 26.427,0, 47.36,7.547, 62.267,22.453c 46.347,46.347, 17.093,152.827-65.307,266.96
			C 538.213,311.893, 553.68,335.36, 566.16,358.267z M 115.76,25.6c-19.093,0-33.707,4.933-43.413,14.64c-22,22-19.12,69.6, 7.947,130.613
			c 13.467,30.4, 32.24,62.373, 54.987,94.667c 22.64-29.147, 48.133-58.187, 76.107-86.133c 28.293-28.293, 57.44-53.36, 86.56-75.893
			C 229.067,54.853, 162.827,25.6, 115.76,25.6z M 409.84,198.24c-29.173-29.173-59.52-55.52-89.707-78.453
			c-30.267,22.987-60.64,49.253-89.893,78.453c-29.173,29.173-55.44,59.44-78.48,89.707c 23.040,30.32, 49.387,60.613, 78.56,89.813
			C 259.467,406.933, 289.84,433.28, 320.053,456.267c 30.187-22.96, 60.533-49.307, 89.68-78.453c 30.293-30.293, 56.373-60.4, 78.72-89.6
			C 465.413,257.813, 439.093,227.493, 409.84,198.24z M 586.667,448.027c-14.747,0-26.667-11.92-26.667-26.667s 11.92-26.667, 26.667-26.667s 26.667,11.92, 26.667,26.667S 601.413,448.027, 586.667,448.027z
			 M 373.333,101.36c-14.747,0-26.667-11.92-26.667-26.667s 11.92-26.667, 26.667-26.667s 26.667,11.92, 26.667,26.667S 388.080,101.36, 373.333,101.36z M 53.333,501.36c 14.747,0, 26.667,11.92, 26.667,26.667s-11.92,26.667-26.667,26.667
			s-26.667-11.92-26.667-26.667S 38.587,501.36, 53.333,501.36z"  />
<glyph unicode="&#xe078;" d="M 522.72,471.867l 37.707-37.707l 37.707,37.707L 503.867,566.133L 466.133,528.427l 37.707-37.707l-56.587-56.587l-113.147,113.147l-37.707-37.707
	l 37.707-37.707L 51.307,189.013l 64.64-64.667L 41.867,9.867l 114.48,74.053l 64.64-64.64L 503.867,302.133l 37.707-37.707l 37.707,37.707l-113.147,113.12
	L 522.72,471.867z M 466.133,339.84l-56.613-56.56l-56.56,56.587l-18.853-18.853l 56.56-56.587l-37.707-37.733l-56.56,56.587l-18.853-18.853
	l 56.56-56.587l-37.707-37.707l-56.56,56.587l-18.853-18.853l 56.56-56.587l-56.56-56.56l-94.267,94.293l 245.093,245.12L 466.133,339.84z"  />
<glyph unicode="&#xe079;" d="M 554.267,522.853C 393.173,545.76, 232.373,545.813, 70.907,522.8C 29.173,516.56,0,477.067,0,434.72l0-293.333 c0-42.347, 24.213-81.867, 66.187-88.16
	c 80.56-11.467, 157.76-17.253, 239.147-17.253s 170.827,5.813, 251.573,17.28C 598.693,59.52, 640,99.040, 640,141.387L 640,434.667 
	C 640,477.013, 596.293,516.533, 554.267,522.853z M 53.333,434.667c0,16.133, 4.747,33.013, 20.373,35.36c 70.453,10, 138.293,15.333, 208.773,16.32l-104.507-185.493L 53.333,300.853 
	L 53.333,434.667 z M 586.667,141.387c0-16.133-24.213-32.987-39.893-35.333c-156.133-22.213-312.24-22.16-467.973-0.027C 62.907,108.4, 53.333,125.227, 53.333,141.387l0,106.133 
	l 156.293,0 l 47.227,73.547l 22.64-191.467l 137.12,117.92L 586.667,247.52 L 586.667,141.387 z M 586.667,300.853l-189.013,0 l-76.213-75.013l-29.093,260.693
	c 4.373,0.027, 8.613,0.24, 12.987,0.24c 78.88,0, 165.813-5.653, 243.68-16.693C 564.907,467.68, 586.667,450.827, 586.667,434.72L 586.667,300.853 zM 426.72,421.387L 453.28,421.387L 453.28,394.667L 426.72,394.667zM 480,421.387L 506.72,421.387L 506.72,394.667L 480,394.667z"  />
<glyph unicode="&#xe07a;" d="M 442.907,299.067l-115.493,24.8l 53.307,248.16L 197.093,297.307l 93.067-20L 231.467,4L 442.907,299.067z"  />
<glyph unicode="&#xe07b;" d="M 546.293,514.267c-62.4,62.373-163.893,62.373-226.32,0L 93.733,288c-62.373-62.4-62.4-163.893,0-226.267c 62.4-62.373, 163.867-62.373, 226.267,0
	L 546.293,288C 608.64,350.4, 608.693,451.893, 546.293,514.267z M 508.587,476.56c 41.573-41.6, 41.573-109.28,0-150.853l-113.173-113.12L 244.587,363.413
	l 113.12,113.147C 399.333,518.16, 466.987,518.16, 508.587,476.56z"  />
<glyph unicode="&#xe07c;" d="M 581.973,213.733c-2.133,1.253-4.32,2.4-6.587,3.547l-4.96,3.227l-108.72,76.347l 31.573,23.547
	c 29.84-12.667, 69.467,12.4, 86.613,23.173c 43.547,27.493, 56.56,85.253, 29.067,128.747C 583.893,512, 533.653,526.373, 491.973,507.733L 491.52,508.533
	c-23.547,37.28-73.067,48.48-110.373,24.96c-24.48-15.467-42.4-59.44-22.853-109.067l-37.867-28.373l-43.333,30.427
	c 17.973,50.213-1.253,93.6-26.187,108.32c-38.027,22.4-87.2,9.68-109.52-28.32l-0.533-0.773C 98.64,522.96, 48.853,507.067, 25.013,466.64
	c-26.107-44.32-11.333-101.653, 33.013-127.813c 17.467-10.267, 57.92-34.053, 87.333-20.48l 36.88-25.84l-110.88-83.013L 66.507,206.133
	c-2.187-1.2-4.32-2.4-6.4-3.76c-43.573-27.44-56.56-85.253-29.12-128.747c 27.493-43.493, 85.253-56.56, 128.747-29.067
	c 20.827,13.12, 35.2,33.547, 40.773,57.28l 122.987,91.813l 121.147-84.8c 6.32-23.547, 21.333-43.493, 42.533-56c 44.32-26.133, 101.707-11.307, 127.787,33.013
	C 641.147,130.24, 626.293,187.573, 581.973,213.733z M 369.333,361.707l 60.48,44.8l-14.213,22.56c-20.053,31.707-10.187,55.84-5.947,59.333
	c 12.4,7.867, 28.907,4.107, 36.773-8.293l 28.48-45.093l 33.813,21.36c 18.613,11.76, 43.387,6.187, 55.2-12.453
	c 11.76-18.64, 6.133-43.44-12.507-55.2c-20.427-12.907-30.72-17.147-35.92-18.027L 503.387,389.867l-73.6-53.493l-21.413-15.573l-49.653,33.013
	L 369.333,361.707z M 247.787,204.053l-97.147-70.613l-1.12-13.173c-1.040-12.8-7.707-23.947-18.24-30.56c-18.64-11.76-43.44-6.187-55.2,12.453
	s-6.187,43.387, 12.453,55.147c 2.267,1.467, 4.693,2.667, 7.2,3.6l 26.667,17.813l 108.080,80.107l 10.827,8.027l 48.373-32.293L 247.787,204.053z
	 M 569.067,113.013c-11.2-19.013-35.813-25.36-54.827-14.16c-10.72,6.347-17.68,17.227-19.147,30l-1.573,13.173l-125.093,85.2l-45.84,31.2
	l-48.24,32.853l-60.373,41.093L 133.12,387.467L 121.573,367.84C 116.347,368.56, 105.947,372.533, 85.093,384.773C 66.107,396.027, 59.787,420.56, 70.933,439.573
	c 11.253,19.013, 35.787,25.36, 54.773,14.16l 34.507-20.32l 27.093,45.947c 7.44,12.72, 23.867,16.88, 36.507,9.44
	c 4.267-3.333, 14.907-27.2-4.107-59.467L 206.133,406.347l 66.4-46.133l 48.96-33.947l 48.24-33.493l 46.773-32.507l 103.893-72.133l 27.2-16.987
	c 2.56-0.827, 5.013-2.027, 7.253-3.333C 573.893,156.533, 580.213,132, 569.067,113.013z"  />
<glyph unicode="&#xe07d;" d="M 559.92,161.547c0,0-186.293,186.96-186.64,206.453L 373.28,394.72 l 53.44,0 l0,160 L 186.667,554.72 l0-160 l 53.333,0 L 240.107,368c-0.347-19.493-186.64-206.453-186.64-206.453
	c-35.12-39.413-27.76-71.627-21.52-86.187S 62.053,21.333, 79.333,21.333l 454.72,0 c 17.28,0, 41.12,39.44, 47.36,54S 595.040,122.133, 559.92,161.547z
	 M 532.427,96.347c-2.347-5.44-8.32-15.147-13.333-21.68L 94.293,74.667 c-5.013,6.533-10.987,16.24-13.307,21.68
	c-3.84,8.907, 5.12,21.44, 11.413,28.693c 200.347,201.12, 200.64,219.147, 201.040,242.933L 293.44,447.947 L 240.080,448L 239.92,448 L 240,501.28l 133.28,0 L 373.36,448l-0.16,0 L 320,448 
	l-0.027-80.933c 0.4-22.853, 0.693-40.907, 201.040-242.027C 527.28,117.787, 536.213,105.253, 532.427,96.347zM 320,288l-26.72,0 l-160-160l0-26.72 L 480,101.28 L 480,128 L 320,288z M 266.72,208l 26.56,53.28L 320,261.28 L 346.72,208L 266.72,208 z"  />
</font>
</defs>
</svg>
